<?xml version="1.0" encoding="utf-8"?>
<!-- Generator: Adobe Illustrator 16.0.0, SVG Export Plug-In . SVG Version: 6.00 Build 0)  -->
<!DOCTYPE svg PUBLIC "-//W3C//DTD SVG 1.1//EN" "http://www.w3.org/Graphics/SVG/1.1/DTD/svg11.dtd">
<svg version="1.1" id="Layer_1" xmlns="http://www.w3.org/2000/svg" xmlns:xlink="http://www.w3.org/1999/xlink" x="0px" y="0px"
	 width="1148px" height="526px" viewBox="58.5 208.5 1148 526" enable-background="new 58.5 208.5 1148 526" xml:space="preserve">
<circle fill="#FFFFFF" cx="324.69" cy="472.752" r="176.889"/>
<g>
	<g>
		<path fill="#030202" stroke="#BF1F4E" stroke-width="9.7747" stroke-miterlimit="10" d="M491.508,304.21
			c-44.799-44.799-104.371-69.47-167.726-69.47c-63.356,0-122.927,24.671-167.726,69.47c-44.799,44.808-69.47,104.369-69.47,167.726
			c0,63.363,24.671,122.927,69.47,167.725c44.799,44.8,104.37,69.472,167.726,69.472c63.355,0,122.926-24.672,167.726-69.472
			c44.8-44.798,69.47-104.361,69.47-167.725C560.978,408.58,536.308,349.018,491.508,304.21z M322.561,650.179
			c-101.144,0-176.352-77.091-176.352-178.243c0-101.143,82.732-179.013,176.352-179.013c92.452,0,177.981,77.332,177.981,178.476
			C500.542,572.55,423.703,650.179,322.561,650.179z"/>
	</g>
</g>
<g>
	<g>
		<g>
			<path fill="#F1A948" d="M335.95,537.434l-17.65-1.826l-7.303-4.868l-65.121,5.478l1.824-99.813l9.739-1.824l12.172-13.999
				l40.777,1.218l27.388-1.218l42.604,1.218l13.389,15.824l11.563-5.479v102.248l-61.471-3.652L335.95,537.434z M319.517,532.564
				l15.216,1.218l7.912-6.088l59.035,3.045v-90.684l-8.52,4.26l-13.999-17.04l-40.777-1.218l-26.779,1.218l-39.559-1.218
				l-12.173,13.39l-8.521,0.609l-1.217,91.291l62.078-4.869L319.517,532.564z"/>
		</g>
		<g>
			<path fill="#F1A948" d="M329.255,515.523l-1.217-0.609c-16.433-9.128-35.3-10.954-57.818-4.868l-2.434,1.217l-2.435-82.163h4.261
				l2.435,76.687c21.908-5.479,40.776-3.652,57.208,5.478c10.956-8.521,27.997-10.347,51.732-6.086l-1.216-77.902h4.259
				l1.218,82.771l-2.435-0.608c-24.953-4.87-41.995-3.044-52.341,5.477L329.255,515.523z"/>
		</g>
		<g>
			<path fill="#F1A948" d="M252.569,527.695l3.043-88.855h4.26l-2.434,84.597c23.128-1.825,46.863-3.651,69.383-4.87
				c14.606-0.608,29.213,0.608,43.211,1.218c7.303,0.608,15.215,1.217,23.127,1.217l-1.827-78.511h4.261l1.826,82.771h-1.826
				c-8.521,0-16.433-0.608-24.953-1.217c-13.999-1.217-28.605-1.825-43.212-1.217c-23.736,1.217-48.079,2.434-71.816,4.869
				L252.569,527.695L252.569,527.695z"/>
		</g>
		<g>
			
				<rect x="250.942" y="514.891" transform="matrix(0.6503 -0.7597 0.7597 0.6503 -300.97 380.2162)" fill="#F1A948" width="23.128" height="4.261"/>
		</g>
		<g>
			
				<rect x="386.444" y="504.71" transform="matrix(0.7908 -0.612 0.612 0.7908 -233.3917 345.3463)" fill="#F1A948" width="4.262" height="18.869"/>
		</g>
		<g>
			<polygon fill="#F1A948" points="322.561,520.393 322.561,489.354 309.171,472.313 311.605,399.887 290.304,398.67 
				279.958,402.322 271.436,402.322 269.611,376.151 279.958,376.151 284.826,378.586 311.605,378.586 310.388,367.021 
				302.476,352.415 302.476,337.2 343.254,337.2 340.21,353.024 336.558,366.414 336.558,377.368 365.163,377.368 365.163,373.717 
				373.076,373.717 373.076,402.322 365.163,402.322 356.643,397.453 337.776,397.453 338.385,471.095 329.255,489.354 
				329.255,521.609 			"/>
		</g>
		<g>
			<path fill="#F1A948" d="M298.216,435.187v4.869h-16.433v-4.869H298.216L298.216,435.187z M298.216,443.1v4.868h-16.433V443.1
				H298.216L298.216,443.1z M298.216,451.011v4.869h-16.433v-4.869H298.216L298.216,451.011z M298.216,458.314v4.869h-16.433v-4.869
				H298.216L298.216,458.314z M298.216,466.226v4.87h-16.433v-4.87H298.216L298.216,466.226z M298.216,474.139v4.869h-16.433v-4.869
				H298.216L298.216,474.139z M298.216,482.05v4.87h-16.433v-4.87H298.216L298.216,482.05z M298.216,489.962v4.259h-16.433v-4.868
				h16.433V489.962z"/>
		</g>
		<g>
			<path fill="#F1A948" d="M371.25,433.97v4.868h-16.433v-4.868H371.25L371.25,433.97z M371.25,441.881v4.87h-16.433v-4.87H371.25
				L371.25,441.881z M371.25,449.793v4.869h-16.433v-4.869H371.25L371.25,449.793z M371.25,457.706v4.869h-16.433v-4.869H371.25
				L371.25,457.706z M371.25,465.617v4.261h-16.433v-4.87L371.25,465.617L371.25,465.617z M371.25,472.92v4.87h-16.433v-4.87H371.25
				L371.25,472.92z M371.25,480.833v4.868h-16.433v-4.868H371.25L371.25,480.833z M371.25,488.745v4.868h-16.433v-4.868H371.25z"/>
		</g>
	</g>
</g>
<g>
	<g>
		<g>
			<g>
				<path fill="#C01F43" d="M322.561,617.162l-1.217-1.218c-35.3-30.43-76.076-44.428-122.332-41.386h-1.825v-39.56h1.825
					c53.558-4.26,93.118,4.869,124.766,26.779c37.733-21.301,82.163-30.432,132.069-28.605h1.826l-5.478,38.343h-1.826
					c-38.951-2.435-79.728,12.172-125.375,44.428L322.561,617.162z M209.967,569.69c42.603,0,79.119,13.998,113.202,42.603
					c45.038-31.648,86.424-46.862,125.375-44.429l4.26-29.822c-48.08-1.825-91.9,7.912-128.417,28.604l-1.217,0.609l-1.825-1.218
					C290.913,543.52,252.569,535,200.229,538.65v31.04C203.272,569.69,206.924,569.69,209.967,569.69z"/>
			</g>
			<g>
				<polygon fill="#C01F43" points="228.833,592.209 197.186,574.559 199.011,571.517 225.183,584.905 225.791,572.733 
					230.051,572.733 				"/>
			</g>
			<g>
				<polygon fill="#C01F43" points="419.33,591.6 418.112,571.517 422.373,571.517 422.982,584.297 447.935,569.081 449.76,572.125 
									"/>
			</g>
		</g>
		<g>
			<path fill="#C01F43" d="M214.228,560.561c0-3.651,0-7.304,0-10.955s0-7.303,0-10.955c1.217,0.608,1.826,0.608,3.651,1.218
				c0,3.043,0,5.478,0,8.521c0,3.044,0,5.478,0,8.521c3.042,0.609,5.478,1.826,8.521,1.826c0,1.217,0,2.435,0,3.65
				C222.748,562.387,218.488,561.17,214.228,560.561L214.228,560.561z M228.224,553.866c0-1.825,0.609-4.26,1.217-5.478
				s1.218-1.825,1.826-2.435c0.609-0.608,1.826-1.217,1.826-1.217c1.217,0,1.826,0,3.652,0c2.433,0.608,4.868,1.826,6.086,4.869
				c0.608,1.218,1.825,2.435,1.825,3.652c0.609,1.825,0.609,3.041,0.609,4.868c0,1.826,0,3.044-0.609,4.26
				c-0.608,1.217-1.217,1.826-1.825,3.044c-1.826,1.825-3.652,1.825-6.086,1.216c-2.436-0.608-4.87-1.825-6.087-4.868
				c-0.609-1.218-1.827-2.435-1.827-3.651C228.224,556.909,228.224,555.084,228.224,553.866L228.224,553.866z M231.877,554.475
				c0,2.435,0.609,4.261,1.826,5.479c1.217,1.218,1.826,2.434,3.652,2.434c1.825,0.608,2.434,0,3.651-1.216
				c0.608-0.609,1.217-1.218,1.217-1.826c0-1.218,0.609-1.825,0.609-3.044c0-2.434-0.609-4.259-1.826-5.477
				c-1.217-1.826-1.826-1.826-3.651-2.435c-1.826-0.609-2.435,0-3.652,1.217C232.486,550.824,231.877,552.04,231.877,554.475
				L231.877,554.475z M251.961,570.299c-1.217-3.652-1.825-7.305-3.042-11.563c-1.218-3.651-1.826-7.304-3.042-11.563
				c1.216,0.608,2.434,0.608,3.651,1.217c0.609,2.435,1.826,5.478,1.826,8.521s1.826,5.478,1.826,8.521
				c0.609-2.436,1.826-4.87,1.826-7.304c0.609-2.436,1.825-4.87,1.825-7.304c1.217,0.608,2.434,0.608,3.652,1.217
				c-1.218,3.043-1.827,6.087-3.043,9.13c-1.217,3.042-1.826,6.086-3.042,9.129C255.004,570.906,253.787,570.906,251.961,570.299
				L251.961,570.299z M264.133,573.342c0-3.65,0-6.695,0-10.347c0-3.65,0-6.695,0-10.345c4.26,1.216,8.521,2.434,12.78,3.649
				c0,1.218,0,1.827,0,3.652c-3.042-1.217-6.086-1.825-9.128-2.435c0,1.826,0,3.043,0,4.869c3.042,1.217,5.478,1.826,8.52,2.435
				c0,1.217,0,1.825,0,3.651c-3.042-0.608-5.478-1.826-8.52-1.826c0,1.218,0,1.826,0,2.435c0,1.218,0,1.826,0,2.435
				c3.042,1.217,6.086,1.825,9.737,2.434c0,1.217,0,1.827,0,3.652C273.262,575.167,268.394,574.559,264.133,573.342L264.133,573.342
				z M287.261,578.819c0-3.042,0-6.695,0-9.738s0-6.695,0-9.737c1.217,0.608,2.434,0.608,3.651,1.217c0,3.043,0,6.695,0,9.738
				c0,3.042,0,6.694,0,9.737C289.086,579.428,287.869,579.428,287.261,578.819L287.261,578.819z M292.738,574.559
				c1.217,0,1.826,0.608,3.652,0.608c0,1.826,0.609,2.436,1.217,3.044s1.825,1.825,2.433,1.825c1.217,0.608,1.826,0,2.435,0
				c0.608-0.608,1.217-1.217,1.217-1.825s0-1.218-0.608-1.218c0-0.608-0.608-1.216-1.217-1.216c-0.609-0.61-1.827-1.219-2.435-1.827
				c-1.825-1.217-3.042-1.825-4.26-3.042c-1.217-1.826-1.826-2.435-1.826-4.87c0-1.217,0-1.825,0.608-2.434
				c0.609-0.609,1.217-1.218,1.827-1.826c1.217,0,1.826,0,3.651,0c1.825,0.608,3.651,1.826,4.869,3.043s1.826,3.043,1.826,4.869
				c-1.217-0.608-2.434-0.608-3.651-0.608c0-1.217-0.609-1.825-1.218-2.435c-0.608-0.608-1.216-1.217-1.825-1.217
				c-1.217-0.608-1.825,0-2.434,0c-0.608,0-0.608,0.608-0.608,1.217c0,0.609,0,1.218,0.608,1.826
				c0.609,0.608,1.826,1.217,3.042,1.826c1.216,0.608,3.043,1.825,3.651,2.434c1.217,0.608,1.826,1.825,1.826,2.434
				c0,0.61,0.608,1.826,0.608,3.044c0,1.217-0.608,1.825-1.217,3.041c-0.609,1.219-1.826,1.827-2.435,1.827s-1.826,0-3.651,0
				c-1.826-0.608-3.652-1.827-5.479-3.043C293.955,578.211,293.347,576.385,292.738,574.559L292.738,574.559z M320.735,587.949
				c0-2.436,0-5.479,0-7.913c0-2.434,0-5.479,0-7.912c-1.827-0.608-3.651-1.217-5.478-1.825c0-1.218,0-1.826,0-3.043
				c4.869,1.217,9.128,2.435,13.998,3.651c0,1.217,0,1.825,0,3.042c-1.826-0.608-3.65-0.608-5.478-1.217c0,2.434,0,5.479,0,7.912
				c0,2.435,0,5.479,0,7.913C322.561,588.558,321.952,587.949,320.735,587.949L320.735,587.949z M329.864,580.037
				c0-1.825,0.608-3.043,1.217-4.87c0.608-1.217,1.218-1.825,1.827-2.434c0.608-1.217,1.825-1.825,1.825-1.825
				c1.217-1.218,1.825-1.826,3.651-1.826c2.434-1.217,4.87-0.608,6.087,0.608c0.607,0.609,1.825,1.826,1.825,2.435
				c0.608,1.217,0.608,1.825,0.608,3.652c0,1.825,0,2.434-0.608,4.259c-0.608,1.216-1.217,2.435-1.825,3.043
				c-1.827,1.825-3.652,3.651-6.087,4.26c-2.434,0.609-4.869,0.609-6.086-0.608c-0.61-0.608-1.827-1.826-1.827-1.826
				C330.472,582.472,329.864,581.253,329.864,580.037L329.864,580.037z M333.515,578.819c0,1.825,0.609,3.043,1.826,4.26
				c1.216,0.608,1.825,1.217,3.651,0.608c1.826-0.608,2.434-1.217,3.651-2.436c0.608-0.607,0.608-1.824,1.217-1.824
				c0-1.217,0.609-1.825,0.609-2.435c0-1.826-0.609-3.651-1.826-4.26c-1.217-0.608-1.826-1.217-3.651-0.608
				c-1.826,0.608-2.435,1.825-3.651,2.434C334.124,575.167,333.515,576.993,333.515,578.819L333.515,578.819z M355.426,575.777
				c1.217-0.61,1.826-1.219,3.651-1.827c0,1.217,0.608,1.827,1.217,1.827c0.609,0.607,1.827,0.607,2.435,0
				c1.216-0.61,1.825-1.219,2.434-1.827c0.608-0.608,1.217-1.825,1.217-1.825c0-0.608,0-1.217-0.609-1.217
				c0,0-0.608-0.608-1.217-0.608c-0.608,0-1.826,0-2.433,0c-1.827,0-3.043,0-4.261-0.608c-1.217-0.609-1.826-1.826-1.826-3.044
				c0-1.217,0-1.825,0.609-2.434c0.608-1.218,1.217-1.827,1.825-2.435c1.217-0.608,1.826-1.217,3.652-1.825
				c1.825-0.608,3.65-0.608,4.868,0c1.218,0.608,1.826,1.825,1.826,3.651c-1.217,0.608-2.435,1.217-3.652,1.217
				c0-1.217-0.609-1.826-1.217-1.826c-0.609-0.609-1.216,0-1.825,0c-1.218,0.609-1.826,1.218-2.435,1.826
				c-0.609,1.217-0.609,1.825-0.609,2.435c0,0.608,0,0.608,0.609,1.217c0.608,0,1.825,0.608,3.043,0.608c1.824,0,3.042,0,3.65,0
				c1.218,0,1.827,0.608,1.827,1.826c0.608,0.608,0.608,1.825,0.608,2.434s-0.608,1.825-1.217,3.043s-1.826,1.826-2.435,2.435
				c-1.217,0.608-1.826,1.217-3.651,1.825c-1.825,0.607-3.651,0.607-5.478,0C356.643,578.819,356.034,578.211,355.426,575.777
				L355.426,575.777z M372.466,576.993c0-3.043,0-6.087,0-9.129c0-3.043,0-6.086,0-9.129c4.26-1.826,8.521-2.436,12.781-4.261
				c0,1.217,0,1.825,0,3.043c-3.043,1.218-6.087,1.826-9.129,2.435c0,1.826,0,2.434,0,4.26c3.042-1.218,5.478-1.826,8.521-2.434
				c0,1.216,0,1.825,0,3.042c-3.042,1.218-5.478,1.826-8.521,2.435c0,1.217,0,1.825,0,2.436c0,0.607,0,1.824,0,2.433
				c3.042-1.217,6.086-1.825,9.738-2.433c0,1.215,0,1.824,0,3.041C381.596,574.559,377.335,575.777,372.466,576.993L372.466,576.993
				z M388.899,572.733c0-3.042,0-6.695,0-9.738c0-3.042,0-6.695,0-9.736c2.434-0.608,4.869-1.826,7.303-1.826
				c1.827-0.608,3.043-1.218,4.26-0.608c1.217,0,1.826,0.608,1.826,1.826c0.608,0.608,0.608,1.824,0.608,3.041
				c0,1.218-0.608,3.044-1.217,4.261c-0.608,1.218-1.826,1.826-3.65,2.434c0.608,0.608,1.824,0.608,1.824,1.218
				c0.609,0.608,1.217,1.826,1.826,2.435c0.609,1.217,1.827,1.825,1.827,3.043c-1.827,0.609-2.435,0.609-4.26,1.217
				c-1.216-1.217-1.825-2.435-2.435-3.651c-1.217-1.217-1.825-1.826-1.825-2.435c-0.609-0.608-0.609-0.608-1.217-0.608
				s-1.217,0-1.826,0.608h-0.608c0,1.826,0,2.435,0,4.26c0,1.826,0,2.435,0,4.26C391.334,572.125,390.116,572.125,388.899,572.733
				L388.899,572.733z M392.551,560.561c1.217,0,1.826-0.608,2.435-0.608c1.825-0.608,2.435-1.217,3.043-1.217
				c0.608-0.608,0.608-0.608,1.216-1.218c0-0.608,0.608-1.218,0.608-1.826c0-0.607,0-1.217-0.608-1.825
				c-0.608-0.607-0.608-0.607-1.825-0.607c-0.609,0-1.218,0.607-2.435,0.607c-1.217,0.608-1.826,0.608-2.435,1.218
				C392.551,556.909,392.551,558.735,392.551,560.561L392.551,560.561z M410.81,567.256c1.217-0.609,2.434-0.609,3.651-1.218
				c1.218-3.651,1.826-7.303,3.042-11.563c1.217-3.65,1.826-7.911,3.043-11.563c-1.217,0.608-2.434,0.608-3.651,1.216
				c-0.608,2.436-1.825,5.479-1.825,8.522c-0.609,2.434-1.827,5.477-1.827,8.521c-0.608-1.826-1.825-4.871-1.825-6.696
				c-0.608-1.824-1.826-4.869-1.826-6.694c-1.218,0.608-2.434,1.217-3.651,1.217c1.217,3.043,1.825,6.087,3.042,9.13
				C408.375,560.561,409.592,564.213,410.81,567.256L410.81,567.256z M421.765,563.604c0-3.651,0-6.695,0-10.346
				c0-3.652,0-6.695,0-10.347c4.259-1.826,8.52-2.434,12.78-4.261c0,1.218,0,2.435,0,3.652c-3.042,1.217-6.086,1.824-9.129,3.042
				c0,1.826,0,3.043,0,4.869c3.043-1.217,5.478-1.825,8.521-2.435c0,1.218,0,2.435,0,3.652c-3.043,1.218-5.478,1.825-8.521,2.434
				c0,1.218,0,1.825,0,3.043s0,1.826,0,3.043c3.043-1.217,6.086-1.825,9.737-2.435c0,1.218,0,2.435,0,3.652
				C430.893,561.17,426.633,562.387,421.765,563.604z"/>
		</g>
	</g>
</g>
<path fill="none" d="M387.421,294.559c95.629,35.783,144.259,141.998,108.625,237.237c-35.637,95.243-142.05,143.445-237.68,107.662
	c-95.628-35.785-144.261-142-108.625-237.241C185.38,306.977,291.79,258.777,387.421,294.559z"/>
<g enable-background="new    ">
	<path fill="#FFFFFF" d="M137.507,442.136l-0.349,8.883l-15.738-0.618l-0.474,12.089l15.738,0.618l-0.348,8.882l-35.506-1.394
		l0.348-8.882l12.996,0.51l0.474-12.089l-12.996-0.51l0.349-8.883L137.507,442.136z"/>
</g>
<g enable-background="new    ">
	<path fill="#FFFFFF" d="M129.183,398.214c5.561,1.434,9.555,4.042,11.98,7.825c2.426,3.784,2.975,8.254,1.646,13.409
		c-1.333,5.172-3.993,8.813-7.98,10.928c-3.987,2.114-8.722,2.465-14.207,1.052c-5.53-1.426-9.522-4.025-11.975-7.801
		c-2.452-3.773-3.013-8.246-1.68-13.417c1.329-5.155,3.973-8.802,7.933-10.94C118.859,397.133,123.621,396.78,129.183,398.214z
		 M126.869,407.093c-2.049-0.528-3.849-0.767-5.396-0.716c-1.549,0.051-2.878,0.31-3.984,0.777
		c-1.129,0.494-2.019,1.152-2.666,1.976c-0.647,0.823-1.1,1.733-1.357,2.731c-0.273,1.059-0.331,2.065-0.174,3.022
		c0.155,0.956,0.615,1.959,1.381,3.007c0.711,0.937,1.75,1.813,3.117,2.632c1.366,0.818,3.074,1.493,5.123,2.021
		c2.11,0.544,3.916,0.788,5.417,0.732c1.501-0.054,2.815-0.32,3.94-0.8c1.145-0.49,2.043-1.15,2.692-1.981
		c0.649-0.831,1.104-1.745,1.361-2.742c0.261-1.013,0.294-2.052,0.1-3.116s-0.664-2.062-1.41-2.989
		c-0.811-0.995-1.832-1.863-3.062-2.605C130.72,408.298,129.026,407.648,126.869,407.093z"/>
</g>
<g enable-background="new    ">
	<path fill="#FFFFFF" d="M159.392,373.694l-9.94,21.431l-32.236-14.95l3.74-8.063l26.088,12.099l6.2-13.368L159.392,373.694z"/>
</g>
<g enable-background="new    ">
	<path fill="#FFFFFF" d="M148.263,326.105l10.355,21.682l12.318,8.282l-4.959,7.377l-11.942-8.028l-24.48-1.48l5.648-8.403
		l14.407,1.323l-6.81-12.625L148.263,326.105z"/>
</g>
<text transform="matrix(0.6894 -0.7188 0.7217 0.6922 184.2905 344.5317)" fill="#FFFFFF" font-family="'OpenSans-SemiBold'" font-size="53.5128"> </text>
<g enable-background="new    ">
	<path fill="#FFFFFF" d="M192.472,334.893l-12.998-35.165l7.549-6.088l31.612,20.155l-7.124,5.745l-6.274-4.259l-8.659,6.983
		l2.833,7.034L192.472,334.893z M199.674,311.488l-10.167-6.852l4.543,11.388L199.674,311.488z"/>
</g>
<g enable-background="new    ">
	<path fill="#FFFFFF" d="M248.575,297.644l-7.589,3.952l-23.541-15.669l11.442,21.97l-7.209,3.754l-16.412-31.515l9.675-5.039
		l19.415,12.839l-9.402-18.054l7.209-3.754L248.575,297.644z"/>
</g>
<g enable-background="new    ">
	<path fill="#FFFFFF" d="M285.349,283.914c-1.323,1.033-3.097,2.174-5.322,3.426c-2.224,1.252-4.496,2.204-6.814,2.854
		c-5.355,1.502-10.059,1.148-14.109-1.063c-4.051-2.209-6.876-6.163-8.475-11.862c-1.504-5.361-1.119-10.104,1.155-14.228
		c2.274-4.124,6.173-6.96,11.695-8.51c2.853-0.8,5.248-1.179,7.186-1.136c1.937,0.043,3.99,0.265,6.16,0.664l2.25,8.019
		l-0.778,0.218c-0.502-0.207-1.221-0.497-2.157-0.87c-0.936-0.374-1.828-0.665-2.676-0.873c-0.992-0.25-2.098-0.396-3.318-0.433
		c-1.22-0.037-2.456,0.119-3.707,0.47c-1.464,0.411-2.734,1.016-3.811,1.814c-1.077,0.797-1.955,1.804-2.634,3.018
		c-0.643,1.172-1.029,2.536-1.16,4.093c-0.13,1.557,0.066,3.27,0.59,5.139c1.122,3.998,2.948,6.667,5.479,8.005
		c2.531,1.339,5.529,1.522,8.992,0.55c0.305-0.085,0.662-0.193,1.069-0.325c0.407-0.13,0.76-0.253,1.057-0.37l-1.882-6.709
		l-6.613,1.855l-1.799-6.41l14.897-4.179L285.349,283.914z"/>
</g>
<g enable-background="new    ">
	<path fill="#FFFFFF" d="M293.364,284.701l-3.454-35.365l23.818-2.326l0.659,6.745l-15.02,1.467l0.605,6.199l13.837-1.352
		l0.659,6.745l-13.837,1.352l0.872,8.931l15.02-1.467l0.659,6.745L293.364,284.701z"/>
</g>
<g enable-background="new    ">
	<path fill="#FFFFFF" d="M345.25,283.707l-23.59-1.283l1.929-35.48l8.877,0.483l-1.562,28.713l14.713,0.8L345.25,283.707z"/>
</g>
<g enable-background="new    ">
	<path fill="#FFFFFF" d="M359.71,287.211c-2.653-0.551-4.931-1.292-6.833-2.223c-1.903-0.932-3.635-1.958-5.197-3.079l1.718-8.271
		l0.79,0.164c1.431,1.841,3.11,3.376,5.04,4.604c1.929,1.229,3.879,2.049,5.849,2.458c0.496,0.103,1.164,0.185,2.001,0.245
		c0.837,0.06,1.528,0.024,2.073-0.106c0.66-0.139,1.248-0.403,1.766-0.791c0.519-0.387,0.859-0.971,1.021-1.75
		c0.181-0.872-0.013-1.652-0.583-2.339c-0.569-0.687-1.301-1.253-2.197-1.699c-1.114-0.556-2.313-1.114-3.596-1.673
		c-1.284-0.56-2.465-1.162-3.545-1.809c-2.486-1.507-4.144-3.185-4.975-5.03c-0.831-1.846-0.994-3.976-0.493-6.391
		c0.676-3.255,2.596-5.606,5.761-7.054s6.802-1.744,10.914-0.89c2.063,0.428,4.072,1.064,6.024,1.909
		c1.952,0.844,3.662,1.793,5.125,2.844l-1.65,7.944l-0.768-0.16c-1.058-1.373-2.433-2.634-4.129-3.783
		c-1.695-1.147-3.52-1.925-5.475-2.332c-0.761-0.158-1.454-0.244-2.081-0.261c-0.628-0.016-1.308,0.062-2.041,0.235
		c-0.595,0.137-1.14,0.409-1.638,0.817c-0.498,0.409-0.81,0.917-0.936,1.524c-0.185,0.888-0.017,1.659,0.503,2.311
		c0.52,0.652,1.635,1.375,3.349,2.17c1.107,0.506,2.175,0.996,3.201,1.469c1.027,0.473,2.107,1.055,3.243,1.745
		c2.223,1.372,3.768,2.916,4.634,4.631c0.865,1.715,1.046,3.78,0.544,6.195c-0.718,3.458-2.649,5.957-5.793,7.498
		C368.192,287.876,364.316,288.168,359.71,287.211z"/>
</g>
<g enable-background="new    ">
	<path fill="#FFFFFF" d="M426.65,314.066l-9.698-4.842l-3.004-16.063l-2.85-1.423l-5.82,11.657l-7.911-3.95l15.873-31.791
		l12.738,6.36c1.758,0.877,3.233,1.752,4.428,2.624s2.17,1.933,2.928,3.182c0.772,1.292,1.211,2.663,1.321,4.113
		c0.108,1.45-0.268,3.037-1.128,4.758c-1.215,2.434-2.747,4.136-4.595,5.107c-1.85,0.971-3.912,1.448-6.188,1.432L426.65,314.066z
		 M424.86,285.62c0.398-0.797,0.587-1.561,0.571-2.289c-0.017-0.729-0.302-1.427-0.854-2.094c-0.389-0.461-0.875-0.872-1.456-1.233
		s-1.326-0.769-2.233-1.222l-2.658-1.327l-4.274,8.562l2.274,1.136c1.106,0.552,2.08,0.954,2.92,1.204
		c0.841,0.251,1.64,0.29,2.399,0.118c0.708-0.144,1.326-0.431,1.852-0.863C423.926,287.181,424.412,286.517,424.86,285.62z"/>
</g>
<g enable-background="new    ">
	<path fill="#FFFFFF" d="M423.159,312.073l30.837-21.32l7.771,5.801l-11.679,35.625l-7.332-5.475l2.568-7.136l-8.912-6.655
		l-6.111,4.491L423.159,312.073z M447.618,313.241l4.114-11.55l-9.904,7.227L447.618,313.241z"/>
</g>
<g enable-background="new    ">
	<path fill="#FFFFFF" d="M472.633,340.298c-1.079,1.104-2.28,1.959-3.605,2.567c-1.324,0.608-2.701,0.881-4.127,0.822
		c-1.606-0.057-3.166-0.468-4.677-1.234c-1.512-0.765-3.021-1.884-4.528-3.357c-1.122-1.097-2.135-2.169-3.037-3.218
		c-0.903-1.049-1.65-2.019-2.243-2.909l5.038-5.154l0.578,0.565c0.31,0.703,0.655,1.414,1.039,2.132
		c0.383,0.719,1.011,1.505,1.884,2.358c1.122,1.096,2.141,1.781,3.06,2.056c0.917,0.273,1.779,0.248,2.584-0.077
		c0.805-0.303,1.581-0.808,2.327-1.513c0.745-0.707,1.558-1.509,2.436-2.408l9.958-10.189l-5.797-5.665l4.503-4.608l12.155,11.877
		L472.633,340.298z"/>
</g>
<g enable-background="new    ">
	<path fill="#FFFFFF" d="M505.944,355.413c-1.296,1.029-2.692,1.804-4.188,2.324c-1.496,0.52-2.942,0.708-4.338,0.562
		c-0.861-0.086-1.72-0.248-2.58-0.485c-0.86-0.239-1.703-0.585-2.532-1.04c-0.828-0.454-1.642-1.018-2.439-1.689
		c-0.798-0.672-1.59-1.504-2.378-2.497l-2.897-3.647l-9.102,7.227l-5.527-6.961l27.828-22.097l8.542,10.758
		c1.271,1.601,2.221,3.097,2.85,4.49s1,2.813,1.113,4.26c0.129,1.596-0.162,3.142-0.873,4.637
		C508.71,352.75,507.551,354.137,505.944,355.413z M500.1,348.399c0.785-0.623,1.313-1.346,1.584-2.168
		c0.271-0.823,0.306-1.578,0.104-2.267c-0.236-0.887-0.571-1.646-1.005-2.283c-0.435-0.637-1.06-1.469-1.878-2.5l-0.783-0.986
		l-8.335,6.619l0.384,0.483c0.522,0.658,1.021,1.273,1.497,1.847s0.923,1.047,1.342,1.422c0.358,0.323,0.792,0.62,1.304,0.892
		c0.51,0.273,0.966,0.431,1.368,0.477c0.835,0.105,1.569,0.043,2.2-0.185C498.513,349.522,499.253,349.072,500.1,348.399z"/>
</g>
<g enable-background="new    ">
	<path fill="#FFFFFF" d="M488.756,383.334c-2.216-4.204-2.9-7.977-2.053-11.316s3.234-6.043,7.161-8.113l20.076-10.582l4.145,7.861
		l-19.611,10.337c-2.182,1.15-3.591,2.418-4.229,3.801c-0.638,1.384-0.468,3.001,0.507,4.851c0.953,1.809,2.167,2.865,3.642,3.172
		c1.474,0.306,3.344-0.138,5.61-1.333l19.611-10.337l4.145,7.863l-20.055,10.571c-3.871,2.04-7.426,2.503-10.665,1.39
		C493.801,390.388,491.039,387.665,488.756,383.334z"/>
</g>
<g enable-background="new    ">
	<path fill="#FFFFFF" d="M509.24,435.508l-3.161-10.366l9.585-13.235l-0.929-3.046l-12.462,3.801l-2.579-8.457l33.987-10.365
		l4.153,13.618c0.573,1.878,0.954,3.552,1.143,5.019c0.189,1.466,0.091,2.903-0.293,4.313c-0.407,1.449-1.099,2.712-2.076,3.789
		c-0.978,1.076-2.387,1.896-4.228,2.457c-2.602,0.793-4.891,0.854-6.868,0.182c-1.977-0.674-3.742-1.841-5.297-3.504L509.24,435.508
		z M528.646,414.633c0.853-0.26,1.537-0.648,2.054-1.161c0.517-0.515,0.827-1.2,0.931-2.061c0.066-0.601,0.031-1.235-0.107-1.905
		c-0.139-0.671-0.355-1.49-0.65-2.461l-0.867-2.842l-9.153,2.792l0.742,2.433c0.36,1.183,0.739,2.164,1.135,2.946
		c0.397,0.781,0.918,1.388,1.566,1.821c0.592,0.415,1.226,0.664,1.9,0.749C526.87,415.029,527.687,414.925,528.646,414.633z"/>
</g>
<g enable-background="new    ">
	<path fill="#FFFFFF" d="M508.224,434.064l36.685,7.729l1.131,9.631l-33.897,16.019l-1.067-9.088l6.947-3.043l-1.297-11.047
		l-7.463-1.349L508.224,434.064z M524.195,452.627l11.216-4.956l-12.059-2.221L524.195,452.627z"/>
</g>
<text transform="matrix(0.0322 0.9695 -0.9994 0.0332 507.5205 458.2539)" fill="#1A1919" font-family="'CambriaMath'" font-size="30.1372"> </text>
<text transform="matrix(-0.0075 0.97 -1 -0.0077 507.7598 464.1846)" fill="#1A1919" font-family="'CambriaMath'" font-size="30.1395">I</text>
<text transform="matrix(-0.0471 0.9689 -0.9988 -0.0485 507.6699 473.1514)" fill="#1A1919" font-family="'CambriaMath'" font-size="30.1379"> </text>
<text transform="matrix(-0.0789 0.9668 -0.9967 -0.0813 507.3872 479.1318)" fill="#1A1919" font-family="'CambriaMath'" font-size="30.1389"> </text>
<text transform="matrix(-0.1106 0.9637 -0.9935 -0.114 506.9072 485.0898)" fill="#1A1919" font-family="'CambriaMath'" font-size="30.1392"> </text>
<text transform="matrix(-0.1422 0.9595 -0.9892 -0.1466 506.23 491.0547)" fill="#1A1919" font-family="'CambriaMath'" font-size="30.1388"> </text>
<text transform="matrix(-0.1737 0.9543 -0.9838 -0.179 505.3564 496.9844)" fill="#1A1919" font-family="'CambriaMath'" font-size="30.1372"> </text>
<text transform="matrix(-0.2048 0.9481 -0.9775 -0.2111 504.2944 502.8779)" fill="#1A1919" font-family="'CambriaMath'" font-size="30.1397"> </text>
<text transform="matrix(-0.2356 0.941 -0.9701 -0.2429 503.0356 508.7314)" fill="#1A1919" font-family="'CambriaMath'" font-size="30.1401"> </text>
<text transform="matrix(-0.2662 0.9328 -0.9616 -0.2745 501.5791 514.5762)" fill="#1A1919" font-family="'CambriaMath'" font-size="30.139"> </text>
<text transform="matrix(-0.2963 0.9237 -0.9522 -0.3054 499.9458 520.333)" fill="#1A1919" font-family="'CambriaMath'" font-size="30.1379"> </text>
<text transform="matrix(-0.3249 0.914 -0.9422 -0.335 498.1084 526.0732)" fill="#1A1919" font-family="'CambriaMath'" font-size="30.1381">.</text>
<text transform="matrix(-0.8943 0.3757 -0.3874 -0.9219 397.98 635.5625)" fill="#FFFFFF" font-family="'CambriaMath'" font-size="30.1383"> </text>
<text transform="matrix(-0.9544 0.1734 -0.1788 -0.9839 359.4971 647.7275)" fill="#FFFFFF" font-family="'CambriaMath'" font-size="30.1391"> </text>
<text transform="matrix(-0.9278 -0.2828 0.2916 -0.9565 272.5347 644.1582)" fill="#FFFFFF" font-family="'CambriaMath'" font-size="30.1375"> </text>
<text transform="matrix(-0.7713 -0.5883 0.6065 -0.7951 213.3359 615.1563)" fill="#FFFFFF" font-family="'CambriaMath'" font-size="30.139"> </text>
<text transform="matrix(-0.4401 -0.8644 0.8912 -0.4537 159.645 552.9463)" fill="#FFFFFF" font-family="'CambriaMath'" font-size="30.1399"> </text>
<text transform="matrix(-0.4118 -0.8782 0.9054 -0.4246 156.9072 547.584)" fill="#FFFFFF" font-family="'CambriaMath'" font-size="30.1392"> </text>
<text transform="matrix(-0.3833 -0.891 0.9186 -0.3952 154.3613 542.1689)" fill="#FFFFFF" font-family="'CambriaMath'" font-size="30.1388"> </text>
<text transform="matrix(-0.3543 -0.903 0.9309 -0.3653 151.9834 536.6631)" fill="#FFFFFF" font-family="'CambriaMath'" font-size="30.1389"> </text>
<text transform="matrix(-0.3249 -0.914 0.9422 -0.335 149.7852 531.0781)" fill="#FFFFFF" font-family="'CambriaMath'" font-size="30.1381"> </text>
<text transform="matrix(-0.2952 -0.924 0.9526 -0.3043 147.7725 525.4395)" fill="#FFFFFF" font-family="'CambriaMath'" font-size="30.1393"> </text>
<text transform="matrix(-0.2651 -0.9331 0.9619 -0.2733 145.9414 519.7334)" fill="#FFFFFF" font-family="'CambriaMath'" font-size="30.1378"> </text>
<text transform="matrix(-0.2347 -0.9412 0.9703 -0.242 144.2959 513.9688)" fill="#FFFFFF" font-family="'CambriaMath'" font-size="30.1393"> </text>
<text transform="matrix(-0.2039 -0.9484 0.9777 -0.2102 142.8354 508.1445)" fill="#FFFFFF" font-family="'CambriaMath'" font-size="30.1369"> </text>
<text transform="matrix(-0.1729 -0.9545 0.984 -0.1782 141.5674 502.2715)" fill="#FFFFFF" font-family="'CambriaMath'" font-size="30.1388"> </text>
<text transform="matrix(-0.1417 -0.9596 0.9893 -0.1461 140.4922 496.3838)" fill="#FFFFFF" font-family="'CambriaMath'" font-size="30.1395"> </text>
<g>
	<g enable-background="new    ">
		<path fill="#C11F44" d="M724.537,322.632c0.49,0,0.98-0.329,0.98-1.153v-3.46c0-25.043,0-29.656-0.327-34.928
			c-0.327-5.602-1.637-8.238-7.04-9.391c-1.309-0.33-4.093-0.494-6.385-0.494c-1.801,0-2.783-0.33-2.783-1.482
			c0-1.153,1.146-1.483,3.438-1.483c8.842,0,19.155,0.495,23.575,0.495c3.93,0,14.244-0.495,20.629-0.495
			c2.292,0,3.438,0.33,3.438,1.483c0,1.153-0.982,1.482-2.946,1.482c-1.31,0-2.785,0.165-4.749,0.494
			c-4.42,0.824-5.729,3.625-6.058,9.391c-0.326,5.272-0.326,9.885-0.326,34.928v28.998c0,15.157,0,28.172,0.818,35.257
			c0.491,4.613,1.474,8.238,6.385,8.897c2.292,0.329,5.894,0.659,8.35,0.659c1.801,0,2.619,0.495,2.619,1.318
			c0,1.154-1.31,1.648-3.274,1.648c-10.642,0-20.956-0.494-25.539-0.494c-3.767,0-14.08,0.494-20.466,0.494
			c-2.292,0-3.438-0.494-3.438-1.648c0-0.823,0.654-1.318,2.619-1.318c2.455,0,4.421-0.33,5.895-0.659
			c3.273-0.659,4.093-4.284,4.748-9.061c0.817-6.921,0.817-19.937,0.817-35.093v-14.499c0-0.66-0.49-0.989-0.98-0.989h-62.542
			c-0.49,0-0.982,0.165-0.982,0.989v14.499c0,15.157,0,28.172,0.819,35.257c0.49,4.613,1.473,8.238,6.385,8.897
			c2.292,0.329,5.894,0.659,8.35,0.659c1.8,0,2.619,0.495,2.619,1.318c0,1.154-1.31,1.648-3.273,1.648
			c-10.643,0-20.956-0.494-25.541-0.494c-3.766,0-14.08,0.494-20.629,0.494c-2.128,0-3.274-0.494-3.274-1.648
			c0-0.823,0.655-1.318,2.62-1.318c2.456,0,4.421-0.33,5.894-0.659c3.274-0.659,4.094-4.284,4.749-9.061
			c0.817-6.921,0.817-19.937,0.817-35.093v-28.998c0-25.043,0-29.656-0.327-34.928c-0.327-5.602-1.638-8.238-7.04-9.391
			c-1.31-0.33-4.093-0.494-6.385-0.494c-1.8,0-2.783-0.33-2.783-1.482c0-1.153,1.146-1.483,3.438-1.483
			c8.841,0,19.155,0.495,23.576,0.495c3.93,0,14.243-0.495,20.629-0.495c2.291,0,3.437,0.33,3.437,1.483
			c0,1.153-0.981,1.482-2.946,1.482c-1.31,0-2.783,0.165-4.747,0.494c-4.421,0.824-5.729,3.625-6.059,9.391
			c-0.327,5.272-0.327,9.885-0.327,34.928v3.46c0,0.824,0.492,1.153,0.982,1.153H724.537z"/>
		<path fill="#C11F44" d="M780.201,332.518c0-28.174,18.501-64.584,67.616-64.584c40.766,0,66.142,23.89,66.142,61.618
			c0,37.729-26.195,67.55-67.779,67.55C799.193,397.102,780.201,361.679,780.201,332.518z M891.039,335.647
			c0-36.905-21.119-59.807-47.97-59.807c-18.827,0-40.274,10.544-40.274,51.569c0,34.27,18.827,61.454,50.262,61.454
			C864.517,388.863,891.039,383.262,891.039,335.647z"/>
		<path fill="#C11F44" d="M968.644,347.016c0,21.089,0,32.456,3.438,35.422c2.782,2.471,7.039,3.624,19.81,3.624
			c8.677,0,15.062-0.164,19.154-4.612c1.966-2.142,3.931-6.755,4.258-9.886c0.164-1.483,0.49-2.471,1.8-2.471
			c1.147,0,1.311,0.823,1.311,2.801c0,1.813-1.146,14.168-2.456,18.946c-0.981,3.625-1.801,4.449-10.314,4.449
			c-11.788,0-20.301-0.33-27.668-0.494c-7.367-0.329-13.261-0.494-19.974-0.494c-1.801,0-5.402,0-9.333,0.165
			c-3.765,0-8.021,0.329-11.295,0.329c-2.128,0-3.275-0.494-3.275-1.648c0-0.823,0.655-1.318,2.619-1.318
			c2.457,0,4.421-0.33,5.896-0.659c3.273-0.659,4.093-4.284,4.747-9.061c0.818-6.921,0.818-19.937,0.818-35.093v-28.998
			c0-25.043,0-29.656-0.326-34.928c-0.329-5.602-1.64-8.238-7.041-9.391c-1.31-0.33-3.274-0.494-5.402-0.494
			c-1.802,0-2.782-0.33-2.782-1.482c0-1.153,1.146-1.483,3.601-1.483c7.695,0,18.009,0.495,22.43,0.495
			c3.929,0,15.879-0.495,22.266-0.495c2.291,0,3.438,0.33,3.438,1.483c0,1.153-0.982,1.482-2.946,1.482
			c-1.802,0-4.422,0.165-6.385,0.494c-4.421,0.824-5.731,3.625-6.059,9.391c-0.327,5.272-0.327,9.885-0.327,34.928V347.016z"/>
		<path fill="#C11F44" d="M1059.018,352.123c0-8.897-1.637-12.521-3.766-17.3c-1.145-2.636-23.085-38.882-28.814-47.449
			c-4.093-6.096-8.186-10.214-11.295-12.027c-2.129-1.154-4.912-2.142-6.878-2.142c-1.309,0-2.455-0.33-2.455-1.482
			c0-0.989,1.146-1.483,3.111-1.483c2.946,0,15.226,0.495,20.629,0.495c3.438,0,10.149-0.495,17.517-0.495
			c1.637,0,2.456,0.495,2.456,1.483c0,0.988-1.146,1.153-3.603,1.812c-1.473,0.33-2.291,1.647-2.291,2.965
			c0,1.319,0.818,3.295,1.965,5.602c2.292,4.943,25.212,44.649,27.831,49.262c1.639-3.954,22.267-40.2,24.559-45.307
			c1.638-3.625,2.291-6.426,2.291-8.568c0-1.648-0.653-3.46-3.438-4.119c-1.473-0.33-2.947-0.659-2.947-1.647
			c0-1.153,0.819-1.483,2.783-1.483c5.403,0,10.643,0.495,15.39,0.495c3.602,0,14.407-0.495,17.519-0.495
			c1.8,0,2.947,0.33,2.947,1.318c0,1.153-1.311,1.647-3.111,1.647c-1.638,0-4.747,0.659-7.204,1.977
			c-3.438,1.647-5.238,3.625-8.841,8.074c-5.402,6.59-28.323,45.307-31.271,52.392c-2.455,5.931-2.455,11.039-2.455,16.476v13.51
			c0,2.636,0,9.555,0.492,16.476c0.326,4.777,1.8,8.402,6.712,9.061c2.292,0.329,5.894,0.659,8.186,0.659
			c1.801,0,2.62,0.495,2.62,1.318c0,1.154-1.311,1.648-3.439,1.648c-10.313,0-20.627-0.494-25.049-0.494
			c-4.092,0-14.406,0.494-20.465,0.494c-2.291,0-3.601-0.329-3.601-1.648c0-0.823,0.817-1.318,2.62-1.318
			c2.291,0,4.256-0.33,5.729-0.659c3.274-0.659,4.748-4.284,5.075-9.061c0.49-6.921,0.49-13.84,0.49-16.476V352.123z"/>
		<path fill="#C11F44" d="M682.854,478.164c-0.65,0-0.91,0.262-1.169,1.046l-7.017,17.913c-1.299,3.269-1.948,6.407-1.948,7.978
			c0,2.353,1.169,4.053,5.197,4.053h1.947c1.561,0,1.95,0.261,1.95,1.046c0,1.046-0.779,1.308-2.208,1.308
			c-4.158,0-9.746-0.393-13.773-0.393c-1.43,0-8.577,0.393-15.332,0.393c-1.689,0-2.469-0.262-2.469-1.308
			c0-0.785,0.52-1.046,1.559-1.046c1.17,0,2.989-0.132,4.028-0.262c5.977-0.785,8.445-5.229,11.044-11.769l32.614-81.068
			c1.558-3.792,2.337-5.23,3.636-5.23c1.171,0,1.95,1.177,3.249,4.185c3.119,7.19,23.907,59.495,32.224,79.368
			c4.938,11.769,8.705,13.6,11.434,14.254c1.948,0.391,3.898,0.522,5.457,0.522c1.039,0,1.689,0.131,1.689,1.046
			c0,1.046-1.169,1.308-5.977,1.308c-4.678,0-14.163,0-24.558-0.262c-2.339-0.131-3.897-0.131-3.897-1.046
			c0-0.785,0.519-1.046,1.818-1.178c0.91-0.261,1.819-1.437,1.17-3.007l-10.396-26.936c-0.258-0.653-0.648-0.915-1.299-0.915
			H682.854z M709.36,471.627c0.649,0,0.779-0.394,0.649-0.786l-11.694-32.166c-0.13-0.522-0.26-1.176-0.649-1.176
			c-0.389,0-0.649,0.653-0.779,1.176l-11.954,32.036c-0.13,0.522,0,0.916,0.52,0.916H709.36z"/>
		<path fill="#C11F44" d="M775.888,493.724c0.261,10.199,1.949,13.599,4.548,14.514c2.21,0.784,4.679,0.916,6.758,0.916
			c1.428,0,2.209,0.261,2.209,1.046c0,1.046-1.171,1.308-2.99,1.308c-8.445,0-13.642-0.393-16.109-0.393
			c-1.171,0-7.277,0.393-14.033,0.393c-1.689,0-2.859-0.131-2.859-1.308c0-0.785,0.78-1.046,2.079-1.046
			c1.688,0,4.028-0.132,5.847-0.654c3.379-1.046,3.898-4.837,4.028-16.214l1.17-77.016c0-2.615,0.39-4.445,1.689-4.445
			c1.428,0,2.597,1.699,4.806,4.054c1.56,1.699,21.31,22.621,40.278,41.581c8.837,8.89,26.378,27.721,28.587,29.812h0.648
			l-1.299-58.709c-0.13-7.978-1.299-10.461-4.416-11.768c-1.95-0.785-5.069-0.785-6.888-0.785c-1.56,0-2.079-0.393-2.079-1.177
			c0-1.046,1.429-1.178,3.379-1.178c6.755,0,12.992,0.394,15.721,0.394c1.43,0,6.367-0.394,12.733-0.394
			c1.689,0,2.988,0.132,2.988,1.178c0,0.784-0.779,1.177-2.338,1.177c-1.3,0-2.339,0-3.899,0.392
			c-3.638,1.046-4.676,3.792-4.807,11.115l-1.429,82.506c0,2.878-0.52,4.054-1.689,4.054c-1.43,0-2.987-1.438-4.418-2.876
			c-8.187-7.846-24.816-24.975-38.33-38.442c-14.162-14.122-28.584-30.074-30.923-32.559h-0.391L775.888,493.724z"/>
		<path fill="#C11F44" d="M969.232,502.746c0,3.53-0.13,3.792-1.688,4.707c-8.446,4.446-21.18,5.885-31.313,5.885
			c-31.834,0-60.029-15.168-60.029-51.257c0-20.921,10.784-35.565,22.608-42.758c12.474-7.584,24.037-8.499,34.951-8.499
			c8.966,0,20.398,1.569,22.999,2.093c2.728,0.521,7.275,1.307,10.264,1.438c1.559,0.13,1.819,0.653,1.819,1.569
			c0,1.438-0.909,5.099-0.909,21.443c0,2.093-0.39,2.745-1.43,2.745c-0.91,0-1.17-0.652-1.299-1.699
			c-0.391-3.007-1.04-7.192-4.419-10.853c-3.896-4.185-14.291-10.199-28.974-10.199c-7.147,0-16.631,0.523-25.727,8.106
			c-7.276,6.146-11.954,15.953-11.954,32.036c0,28.112,17.8,49.165,45.216,49.165c3.379,0,7.926,0,11.044-1.439
			c1.95-0.916,2.469-2.615,2.469-4.839v-12.289c0-6.538,0-11.508-0.129-15.431c-0.131-4.446-1.3-6.537-5.588-7.453
			c-1.038-0.262-3.248-0.392-5.067-0.392c-1.169,0-1.949-0.261-1.949-1.047c0-1.046,0.91-1.308,2.729-1.308
			c6.757,0,14.941,0.393,18.841,0.393c4.026,0,10.913-0.393,15.201-0.393c1.689,0,2.599,0.262,2.599,1.308
			c0,0.786-0.78,1.047-1.688,1.047c-1.041,0-1.949,0.13-3.509,0.392c-3.508,0.654-4.807,2.877-4.937,7.453
			c-0.131,3.923-0.131,9.152-0.131,15.691V502.746z"/>
		<path fill="#C11F44" d="M1005.487,450.574c0-19.875,0-23.536-0.26-27.72c-0.259-4.446-1.299-6.538-5.587-7.454
			c-1.039-0.262-3.248-0.392-5.067-0.392c-1.429,0-2.209-0.262-2.209-1.177s0.91-1.178,2.859-1.178
			c3.508,0,7.275,0.132,10.524,0.132c3.378,0.131,6.366,0.262,8.185,0.262c4.158,0,30.016,0,32.483-0.131
			c2.469-0.263,4.548-0.523,5.587-0.785c0.65-0.131,1.429-0.523,2.079-0.523c0.649,0,0.78,0.523,0.78,1.178
			c0,0.914-0.65,2.483-1.04,8.498c-0.131,1.309-0.391,7.062-0.648,8.631c-0.131,0.653-0.391,1.438-1.301,1.438
			c-0.909,0-1.169-0.654-1.169-1.83c0-0.916-0.131-3.14-0.779-4.708c-0.909-2.354-2.209-3.923-8.705-4.707
			c-2.209-0.261-15.853-0.524-18.45-0.524c-0.651,0-0.91,0.394-0.91,1.309v33.082c0,0.915,0.131,1.438,0.91,1.438
			c2.857,0,17.8,0,20.788-0.261c3.118-0.262,5.067-0.654,6.238-1.962c0.908-1.046,1.428-1.7,2.077-1.7
			c0.521,0,0.91,0.261,0.91,1.046s-0.52,2.877-1.039,9.546c-0.131,2.615-0.521,7.845-0.521,8.76c0,1.046,0,2.484-1.17,2.484
			c-0.909,0-1.169-0.522-1.169-1.177c-0.129-1.308-0.129-3.008-0.52-4.707c-0.649-2.614-2.469-4.576-7.276-5.1
			c-2.469-0.261-15.332-0.391-18.45-0.391c-0.648,0-0.779,0.521-0.779,1.307v10.33c0,4.445-0.13,16.475,0,20.268
			c0.259,9.021,2.338,10.983,15.592,10.983c3.378,0,8.836,0,12.214-1.57c3.378-1.568,4.938-4.314,5.846-9.676
			c0.26-1.438,0.521-1.961,1.43-1.961c1.04,0,1.04,1.046,1.04,2.354c0,3.007-1.04,11.898-1.689,14.514
			c-0.91,3.4-2.079,3.4-7.017,3.4c-9.745,0-16.892-0.262-22.478-0.393c-5.588-0.262-9.615-0.393-13.513-0.393
			c-1.431,0-4.289,0-7.406,0.131c-2.989,0-6.367,0.262-8.966,0.262c-1.688,0-2.598-0.393-2.598-1.308
			c0-0.654,0.519-1.046,2.078-1.046c1.948,0,3.508-0.262,4.677-0.522c2.6-0.524,3.25-3.4,3.768-7.193
			c0.65-5.491,0.65-15.82,0.65-27.85V450.574z"/>
		<path fill="#C11F44" d="M1103.849,473.588c0,16.736,0,25.759,2.728,28.112c2.209,1.962,5.588,2.877,15.722,2.877
			c6.887,0,11.954-0.132,15.203-3.661c1.559-1.7,3.117-5.361,3.378-7.846c0.129-1.177,0.39-1.961,1.43-1.961
			c0.908,0,1.039,0.652,1.039,2.222c0,1.438-0.91,11.246-1.95,15.037c-0.779,2.877-1.429,3.531-8.185,3.531
			c-9.355,0-16.112-0.262-21.959-0.393c-5.847-0.262-10.524-0.393-15.853-0.393c-1.429,0-4.287,0-7.405,0.131
			c-2.988,0-6.366,0.262-8.966,0.262c-1.688,0-2.599-0.393-2.599-1.308c0-0.654,0.52-1.046,2.079-1.046
			c1.949,0,3.509-0.262,4.679-0.522c2.599-0.524,3.247-3.4,3.767-7.193c0.65-5.491,0.65-15.82,0.65-27.85v-23.014
			c0-19.875,0-23.536-0.26-27.72c-0.261-4.446-1.3-6.538-5.588-7.454c-1.04-0.262-2.598-0.392-4.286-0.392
			c-1.43,0-2.21-0.262-2.21-1.177s0.909-1.178,2.858-1.178c6.107,0,14.293,0.394,17.801,0.394c3.118,0,12.604-0.394,17.67-0.394
			c1.82,0,2.729,0.263,2.729,1.178s-0.779,1.177-2.339,1.177c-1.428,0-3.508,0.13-5.067,0.392c-3.508,0.654-4.548,2.876-4.808,7.454
			c-0.259,4.184-0.259,7.845-0.259,27.72V473.588z"/>
	</g>
</g>
<g>
	<g>
		<path fill="#FFFFFF" d="M135.405,563.041l-3.125-8.169l-4.625,0.186l-1.645-4.301l22.887-0.492l1.777,4.646l-17.155,15.472
			l-1.646-4.301L135.405,563.041z M138.053,560.719l7.397-6.415l-9.694,0.412L138.053,560.719z"/>
		<path fill="#FFFFFF" d="M160.739,575.497l-3.056,1.631l-4.192-8.146l-5.157,2.754l3.36,6.529l-2.946,1.573l-3.36-6.529
			l-8.103,4.329l-1.99-3.866l19.26-10.291L160.739,575.497z"/>
		<path fill="#FFFFFF" d="M169.12,588.678l-2.891,1.917l-4.939-7.7l-4.879,3.236l3.959,6.171l-2.788,1.852l-3.959-6.174
			l-7.666,5.087l-2.346-3.656l18.223-12.089L169.12,588.678z"/>
		<path fill="#FFFFFF" d="M173.179,593.92l-17.318,13.394l-2.603-3.471l17.318-13.394L173.179,593.92z"/>
		<path fill="#FFFFFF" d="M164.119,612.184l4.743,5.531l-2.514,2.218l-7.564-8.82l16.429-14.504l2.821,3.29L164.119,612.184z"/>
		<path fill="#FFFFFF" d="M187.282,609.938l-15.487,15.531l-3.025-3.1l15.487-15.53L187.282,609.938z"/>
		<path fill="#FFFFFF" d="M188.09,634.388l-6.563-5.686l-4.01,2.368l-3.456-2.993l20.043-11.354l3.733,3.234l-8.009,21.781
			l-3.456-2.992L188.09,634.388z M189.357,631.083l3.572-9.168l-8.395,4.989L189.357,631.083z"/>
		<path fill="#FFFFFF" d="M217.331,634.112l-1.968,2.879l-4.9-3.421l-10.436,15.269l-3.544-2.474l10.437-15.269l-4.875-3.403
			l1.967-2.88L217.331,634.112z"/>
		<path fill="#FFFFFF" d="M220.82,640.131l-2.811,4.96l6.633,3.825l-1.659,2.928l-6.633-3.823l-2.917,5.15l7.428,4.284l-1.735,3.063
			l-11.169-6.44l10.84-19.143l11.168,6.439l-1.719,3.037L220.82,640.131z"/>
		<path fill="#FFFFFF" d="M241.251,665.141c-1.498,1.146-3.211,1.788-5.141,1.927c-1.929,0.14-3.962-0.277-6.098-1.247l-6.993-3.18
			l9.007-20.085l6.993,3.179c2.136,0.972,3.794,2.223,4.975,3.753c1.181,1.529,1.842,3.234,1.983,5.113
			c0.141,1.879-0.239,3.825-1.141,5.835C243.944,662.426,242.749,663.995,241.251,665.141z M236.969,662.612
			c1.67-0.61,2.965-1.94,3.884-3.987c0.927-2.068,1.065-3.935,0.416-5.601c-0.651-1.665-2.035-2.979-4.153-3.941l-2.73-1.241
			l-5.83,13l2.73,1.242C233.403,663.046,235.298,663.222,236.969,662.612z"/>
		<path fill="#FFFFFF" d="M271.707,657.678l-1.023,3.341l-5.701-1.757l-5.429,17.715l-4.122-1.27l5.428-17.714l-5.671-1.746
			l1.023-3.341L271.707,657.678z"/>
		<path fill="#FFFFFF" d="M288.274,662.371c1.416,1.264,2.417,2.831,3.001,4.7c0.584,1.87,0.659,3.863,0.224,5.982
			c-0.435,2.118-1.29,3.929-2.567,5.429c-1.276,1.502-2.814,2.559-4.615,3.168c-1.801,0.609-3.691,0.712-5.669,0.31
			c-1.979-0.402-3.677-1.235-5.093-2.5c-1.417-1.265-2.416-2.837-2.998-4.717c-0.583-1.879-0.656-3.878-0.222-5.997
			c0.435-2.117,1.289-3.924,2.563-5.414s2.811-2.542,4.613-3.15c1.8-0.61,3.691-0.714,5.669-0.312
			C285.16,660.273,286.857,661.106,288.274,662.371z M278.923,664.033c-1.057,0.379-1.959,1.049-2.708,2.011
			c-0.75,0.962-1.27,2.156-1.563,3.581c-0.292,1.425-0.284,2.727,0.026,3.904c0.309,1.177,0.875,2.147,1.699,2.908
			c0.822,0.761,1.853,1.269,3.092,1.52c1.238,0.253,2.386,0.189,3.442-0.189c1.056-0.38,1.958-1.05,2.708-2.011
			c0.749-0.962,1.27-2.156,1.562-3.581c0.293-1.426,0.283-2.729-0.025-3.905c-0.311-1.177-0.877-2.146-1.699-2.908
			s-1.854-1.268-3.092-1.521C281.126,663.59,279.979,663.653,278.923,664.033z"/>
		<path fill="#FFFFFF" d="M306.976,663.585l-2.146,21.908l-4.296-0.4l2.146-21.908L306.976,663.585z"/>
		<path fill="#FFFFFF" d="M313.047,681.441l-0.292,4.573l-4.645-0.27l0.292-4.573L313.047,681.441z"/>
		<path fill="#FFFFFF" d="M332.914,666.058c1.783,1.391,2.966,3.298,3.548,5.721l-4.532,0.057c-0.476-1.178-1.209-2.104-2.202-2.777
			c-0.994-0.673-2.185-1-3.573-0.983c-1.143,0.015-2.171,0.319-3.088,0.912s-1.626,1.433-2.132,2.52
			c-0.504,1.086-0.754,2.356-0.747,3.811c0.007,1.433,0.268,2.688,0.783,3.761c0.517,1.074,1.234,1.896,2.156,2.466
			c0.922,0.571,1.954,0.848,3.097,0.834c1.388-0.019,2.576-0.376,3.563-1.074c0.987-0.696,1.712-1.642,2.176-2.831l4.531-0.057
			c-0.56,2.438-1.725,4.374-3.494,5.81c-1.77,1.434-4.001,2.167-6.695,2.201c-2.063,0.026-3.887-0.423-5.473-1.349
			c-1.587-0.926-2.818-2.233-3.693-3.927c-0.876-1.691-1.319-3.618-1.329-5.779c-0.01-2.181,0.414-4.129,1.273-5.843
			c0.859-1.714,2.072-3.053,3.64-4.019c1.567-0.965,3.393-1.461,5.475-1.486C328.893,663.99,331.131,664.667,332.914,666.058z"/>
		<path fill="#FFFFFF" d="M343.922,680.72l0.341,4.564l-4.641,0.392l-0.34-4.565L343.922,680.72z"/>
		<path fill="#FFFFFF" d="M361.437,680.109c-0.42,1.015-1.13,1.883-2.126,2.604c-0.996,0.721-2.263,1.191-3.8,1.415
			c-1.517,0.221-2.907,0.155-4.172-0.197c-1.263-0.35-2.32-0.968-3.17-1.85c-0.851-0.884-1.414-1.976-1.691-3.276l4.551-0.661
			c0.219,0.869,0.667,1.554,1.343,2.054c0.674,0.5,1.508,0.678,2.499,0.533c0.889-0.129,1.54-0.47,1.951-1.021
			c0.411-0.553,0.565-1.209,0.463-1.97c-0.09-0.679-0.357-1.211-0.801-1.598c-0.444-0.386-0.977-0.671-1.599-0.852
			c-0.623-0.183-1.473-0.374-2.552-0.574c-1.395-0.259-2.547-0.547-3.458-0.867c-0.908-0.318-1.717-0.855-2.427-1.611
			c-0.71-0.757-1.156-1.815-1.337-3.172c-0.25-1.87,0.214-3.442,1.394-4.714c1.18-1.272,2.864-2.066,5.048-2.384
			c2.266-0.329,4.146-0.035,5.64,0.881c1.493,0.914,2.456,2.283,2.886,4.108l-4.612,0.669c-0.227-0.764-0.637-1.359-1.23-1.787
			c-0.594-0.428-1.344-0.574-2.256-0.442c-0.789,0.114-1.397,0.417-1.827,0.91c-0.429,0.491-0.59,1.138-0.482,1.939
			c0.085,0.638,0.343,1.141,0.773,1.508c0.431,0.367,0.953,0.643,1.566,0.826c0.612,0.185,1.436,0.368,2.471,0.554
			c1.441,0.293,2.621,0.594,3.54,0.901c0.917,0.307,1.737,0.849,2.46,1.624c0.722,0.775,1.177,1.862,1.365,3.26
			C361.993,678.031,361.858,679.094,361.437,680.109z"/>
		<path fill="#FFFFFF" d="M369.165,676.771l0.876,4.486l-4.566,0.949l-0.876-4.486L369.165,676.771z"/>
		<path fill="#FFFFFF" d="M373.225,661.512l1.401,5.512l7.415-1.987l0.826,3.254l-7.414,1.987l1.454,5.723l8.304-2.227l0.865,3.403
			l-12.486,3.348l-5.402-21.265l12.485-3.348l0.856,3.373L373.225,661.512z"/>
		<path fill="#FFFFFF" d="M391.861,670.403l1.375,4.353l-4.434,1.469l-1.375-4.352L391.861,670.403z"/>
		<path fill="#FFFFFF" d="M399.814,672.965c0.427,1.209,0.466,2.319,0.117,3.332c-0.35,1.01-1.178,1.759-2.485,2.24l-0.559-1.58
			c0.5-0.184,0.823-0.441,0.968-0.771c0.144-0.33,0.106-0.806-0.115-1.431l-0.103-0.292l-1.846,0.682l-1.344-3.806l3.548-1.31
			C398.83,670.914,399.436,671.893,399.814,672.965z"/>
		<path fill="#FFFFFF" d="M426.58,660.051L422.699,662l-15.167-9.024l6.472,13.392l-3.88,1.949l-9.519-19.697l3.879-1.948
			l15.222,9.136l-6.526-13.505l3.88-1.949L426.58,660.051z"/>
		<path fill="#FFFFFF" d="M425.078,639.34l2.964,4.824l6.507-4.136l1.749,2.847l-6.506,4.136l3.077,5.011l7.288-4.633l1.83,2.979
			l-10.958,6.965l-11.433-18.611l10.958-6.966l1.814,2.952L425.078,639.34z"/>
		<path fill="#FFFFFF" d="M454.665,612.664l9.466,20.438l-4.153,3.415l-13.011-9.771l6.685,14.972l-4.129,3.395l-17.726-13.65
			l3.652-3.003l13.112,11.088l-7.192-15.954l3.7-3.041l13.9,10.438l-7.957-15.325L454.665,612.664z"/>
		<path fill="#FFFFFF" d="M484.233,603.79c0.652,1.771,0.765,3.614,0.338,5.528s-1.408,3.778-2.945,5.587l-5.031,5.928
			l-16.409-14.276l5.031-5.928c1.537-1.81,3.2-3.078,4.991-3.807c1.789-0.728,3.594-0.902,5.414-0.523
			c1.82,0.38,3.551,1.283,5.193,2.711C482.443,600.425,483.582,602.02,484.233,603.79z M480.601,607.26
			c-0.094-1.792-0.978-3.416-2.651-4.872c-1.689-1.47-3.416-2.117-5.181-1.941c-1.764,0.174-3.408,1.16-4.932,2.954l-1.965,2.314
			l10.622,9.24l1.964-2.313C479.98,610.847,480.695,609.053,480.601,607.26z"/>
		<path fill="#FFFFFF" d="M479.21,588.247l4.618,3.222l4.374-6.4l2.725,1.901l-4.373,6.401l4.794,3.346l4.898-7.171l2.851,1.991
			l-7.364,10.779l-17.815-12.432l7.364-10.78l2.827,1.974L479.21,588.247z"/>
		<path fill="#FFFFFF" d="M500.628,582.336l3.632-6.396l2.875,1.663l-5.793,10.199l-18.791-10.866l2.161-3.805L500.628,582.336z"/>
		<path fill="#FFFFFF" d="M496.612,548.632l19.783,8.902l-1.79,4.03l-8.602-3.871l-3.806,8.571l8.602,3.871l-1.776,4.002
			l-19.783-8.902l1.777-4.002l8.013,3.606l3.806-8.571l-8.014-3.606L496.612,548.632z"/>
		<path fill="#FFFFFF" d="M498.985,541.374l20.458,7.192L518,552.703l-20.458-7.193L498.985,541.374z"/>
	</g>
</g>
<circle fill="#F1A948" cx="130.981" cy="528.813" r="6.003"/>
<circle fill="#F1A948" cx="513.823" cy="525.555" r="6.003"/>
<circle fill="none" stroke="#BF1F4E" stroke-width="9.7747" stroke-miterlimit="10" cx="323.707" cy="472.214" r="174.967"/>
</svg>
