<?xml version="1.0" encoding="utf-8"?>
<!-- Generator: Adobe Illustrator 21.0.0, SVG Export Plug-In . SVG Version: 6.00 Build 0)  -->
<svg version="1.1" id="Layer_1" xmlns="http://www.w3.org/2000/svg" xmlns:xlink="http://www.w3.org/1999/xlink" x="0px" y="0px"
	 viewBox="0 0 124.3 88.8" style="enable-background:new 0 0 124.3 88.8;" xml:space="preserve" height="106" width="106">
<style type="text/css">
	.st0{fill-rule:evenodd;clip-rule:evenodd;fill:#fff;}
	.st1{fill:#fff;}
</style>
<g>
	<path class="st0" d="M5.7,83v-8.7H7v3.4h2.6v-3.4h1.3V83H9.5v-3.8H7V83H5.7L5.7,83z M11.9,78.7c0-0.9,0.1-1.6,0.3-2.2
		c0.1-0.4,0.3-0.8,0.6-1.2c0.3-0.3,0.5-0.6,0.8-0.8c0.4-0.2,0.9-0.3,1.4-0.3c1,0,1.7,0.4,2.3,1.2c0.6,0.8,0.9,1.9,0.9,3.3
		c0,1.4-0.3,2.5-0.9,3.3c-0.6,0.8-1.3,1.2-2.3,1.2c-1,0-1.7-0.4-2.3-1.2C12.2,81.2,11.9,80.1,11.9,78.7L11.9,78.7z M13.3,78.7
		c0,1,0.2,1.7,0.5,2.2c0.3,0.5,0.8,0.8,1.3,0.8c0.5,0,0.9-0.3,1.3-0.8c0.3-0.5,0.5-1.3,0.5-2.3c0-1-0.2-1.7-0.5-2.2
		c-0.3-0.5-0.8-0.7-1.3-0.7c-0.5,0-1,0.2-1.3,0.7C13.4,76.9,13.3,77.7,13.3,78.7L13.3,78.7z M19.2,83v-8.6h1.3v7.1h3.2V83H19.2
		L19.2,83z M25.6,83h1.3v-3.6l2.4-5h-1.5l-1.5,3.4l-1.5-3.4h-1.5l2.4,5V83L25.6,83z M37.8,83h-1.4l-0.6-2h-2.6l-0.5,2h-1.4l2.5-8.7
		h1.4L37.8,83L37.8,83z M35.4,79.6l-0.9-3.2l-0.9,3.2H35.4L35.4,79.6z M38.5,83v-8.7h1.3l2.6,5.8v-5.8h1.2V83h-1.3l-2.6-5.7V83H38.5
		L38.5,83z M48,79.8v-1.5h2.8v3.5c-0.3,0.4-0.7,0.7-1.2,0.9c-0.5,0.3-1,0.4-1.6,0.4c-0.7,0-1.3-0.2-1.8-0.6
		c-0.5-0.4-0.9-0.9-1.1-1.6c-0.3-0.7-0.4-1.5-0.4-2.3c0-0.9,0.1-1.7,0.4-2.4c0.3-0.7,0.7-1.2,1.2-1.6c0.4-0.3,0.9-0.4,1.5-0.4
		c0.8,0,1.4,0.2,1.9,0.7c0.5,0.5,0.7,1.1,0.9,1.9l-1.3,0.3c-0.1-0.4-0.3-0.8-0.5-1c-0.3-0.2-0.6-0.4-0.9-0.4c-0.6,0-1,0.2-1.4,0.7
		c-0.3,0.5-0.5,1.2-0.5,2.2c0,1,0.2,1.8,0.5,2.3c0.3,0.5,0.8,0.8,1.3,0.8c0.3,0,0.5-0.1,0.8-0.2c0.3-0.1,0.5-0.3,0.7-0.5v-1.1H48
		L48,79.8z M52,83v-8.7h4.8v1.5h-3.5v1.9h3.2v1.5h-3.2v2.4h3.6V83H52L52,83z M58.1,83v-8.6h1.3v7.1h3.2V83H58.1L58.1,83z M63.2,80.2
		l1.3-0.2c0.1,0.6,0.2,1,0.5,1.3c0.2,0.3,0.5,0.4,0.9,0.4c0.4,0,0.7-0.1,0.9-0.4c0.2-0.2,0.3-0.5,0.3-0.8c0-0.2,0-0.4-0.1-0.5
		c-0.1-0.1-0.2-0.3-0.5-0.4c-0.2-0.1-0.5-0.2-1-0.4c-0.7-0.2-1.2-0.5-1.5-0.9c-0.4-0.5-0.6-1.1-0.6-1.7c0-0.4,0.1-0.9,0.3-1.2
		c0.2-0.4,0.5-0.7,0.8-0.9c0.4-0.2,0.8-0.3,1.3-0.3c0.8,0,1.4,0.2,1.8,0.7c0.4,0.5,0.6,1.1,0.6,1.9L67,76.9c-0.1-0.4-0.2-0.8-0.4-1
		c-0.2-0.2-0.5-0.3-0.8-0.3c-0.4,0-0.7,0.1-0.9,0.3c-0.1,0.1-0.2,0.3-0.2,0.5c0,0.2,0.1,0.4,0.2,0.5c0.2,0.2,0.6,0.4,1.2,0.6
		c0.6,0.2,1.1,0.4,1.4,0.6c0.3,0.2,0.5,0.5,0.7,0.9c0.2,0.4,0.3,0.8,0.3,1.4c0,0.5-0.1,1-0.3,1.4c-0.2,0.4-0.5,0.8-0.9,1
		c-0.4,0.2-0.8,0.3-1.4,0.3c-0.8,0-1.4-0.3-1.9-0.8C63.5,81.9,63.3,81.2,63.2,80.2L63.2,80.2z M69.5,81.3h1.2v1.2
		c0,0.5,0,0.9-0.1,1.1c-0.1,0.3-0.2,0.5-0.4,0.7c-0.2,0.2-0.4,0.4-0.7,0.5l-0.2-0.7c0.2-0.1,0.4-0.3,0.5-0.5
		c0.1-0.2,0.2-0.5,0.2-0.8h-0.6V81.3L69.5,81.3z M74.6,83v-8.7h2.7c0.7,0,1.2,0.1,1.5,0.2c0.3,0.2,0.6,0.4,0.8,0.8
		c0.2,0.4,0.3,0.9,0.3,1.4c0,0.7-0.1,1.2-0.4,1.6c-0.3,0.4-0.7,0.7-1.3,0.8c0.3,0.2,0.5,0.5,0.7,0.7c0.2,0.3,0.4,0.7,0.7,1.4
		l0.8,1.7h-1.6l-0.9-1.9c-0.3-0.7-0.6-1.1-0.7-1.3c-0.1-0.2-0.3-0.3-0.4-0.4c-0.1-0.1-0.4-0.1-0.7-0.1h-0.3V83H74.6L74.6,83z
		 M75.9,78h1c0.6,0,1,0,1.2-0.1c0.2-0.1,0.3-0.2,0.4-0.4c0.1-0.2,0.1-0.4,0.1-0.7c0-0.3-0.1-0.5-0.2-0.7c-0.1-0.2-0.3-0.3-0.5-0.3
		c-0.1,0-0.4,0-1,0h-1V78L75.9,78z M86.9,83h-1.4l-0.6-2h-2.6l-0.5,2h-1.4l2.5-8.7h1.4L86.9,83L86.9,83z M84.5,79.6l-0.9-3.2
		l-0.9,3.2H84.5L84.5,79.6z M89.9,74.3h1.3v5.5c0,0.7,0,1.3-0.1,1.7c-0.1,0.5-0.4,0.9-0.7,1.2c-0.3,0.3-0.8,0.5-1.3,0.5
		c-0.6,0-1.1-0.2-1.5-0.7c-0.3-0.5-0.5-1.2-0.5-2.1l1.2-0.2c0,0.5,0.1,0.8,0.2,1.1c0.1,0.3,0.4,0.5,0.6,0.5c0.3,0,0.5-0.1,0.6-0.3
		c0.1-0.2,0.2-0.7,0.2-1.4V74.3L89.9,74.3z M92.6,83v-8.7h2.1c0.8,0,1.3,0,1.6,0.1c0.4,0.1,0.7,0.4,0.9,0.8c0.2,0.4,0.4,1,0.4,1.7
		c0,0.5-0.1,1-0.2,1.3c-0.1,0.4-0.3,0.6-0.5,0.9c-0.2,0.2-0.4,0.3-0.7,0.4c-0.3,0.1-0.8,0.1-1.4,0.1h-0.8V83H92.6L92.6,83z
		 M93.9,75.8v2.5h0.7c0.5,0,0.9,0,1-0.1c0.2-0.1,0.3-0.2,0.4-0.4c0.1-0.2,0.1-0.4,0.1-0.7c0-0.3-0.1-0.6-0.2-0.8
		c-0.1-0.2-0.3-0.3-0.5-0.4c-0.2,0-0.5-0.1-0.9-0.1H93.9L93.9,75.8z M98.6,74.3h1.3V79c0,0.7,0,1.2,0,1.5c0.1,0.4,0.2,0.6,0.4,0.9
		c0.2,0.2,0.5,0.3,0.9,0.3c0.4,0,0.7-0.1,0.8-0.3c0.2-0.2,0.3-0.5,0.3-0.7c0-0.3,0.1-0.8,0.1-1.5v-4.8h1.3v4.6c0,1,0,1.8-0.1,2.2
		c-0.1,0.4-0.2,0.8-0.4,1.1c-0.2,0.3-0.4,0.5-0.8,0.7c-0.3,0.2-0.7,0.3-1.2,0.3c-0.6,0-1.1-0.1-1.4-0.3c-0.3-0.2-0.6-0.4-0.8-0.7
		c-0.2-0.3-0.3-0.6-0.4-1c-0.1-0.5-0.1-1.2-0.1-2.2V74.3L98.6,74.3z M105.2,83v-8.7h2.7c0.7,0,1.2,0.1,1.5,0.2
		c0.3,0.2,0.6,0.4,0.8,0.8c0.2,0.4,0.3,0.9,0.3,1.4c0,0.7-0.1,1.2-0.4,1.6c-0.3,0.4-0.7,0.7-1.3,0.8c0.3,0.2,0.5,0.5,0.7,0.7
		c0.2,0.3,0.4,0.7,0.7,1.4L111,83h-1.6l-0.9-1.9c-0.3-0.7-0.6-1.1-0.7-1.3c-0.1-0.2-0.3-0.3-0.4-0.4c-0.1-0.1-0.4-0.1-0.7-0.1h-0.3
		V83H105.2L105.2,83z M106.5,78h1c0.6,0,1,0,1.2-0.1c0.2-0.1,0.3-0.2,0.4-0.4c0.1-0.2,0.1-0.4,0.1-0.7c0-0.3-0.1-0.5-0.2-0.7
		c-0.1-0.2-0.3-0.3-0.5-0.3c-0.1,0-0.4,0-1,0h-1V78L106.5,78z M117.5,83h-1.4l-0.6-2H113l-0.5,2H111l2.5-8.7h1.4L117.5,83L117.5,83z
		 M115.1,79.6l-0.9-3.2l-0.9,3.2H115.1z"/>
</g>
<g>
	<g>
		<path class="st1" d="M124.3,88.8H0V65h0.8c3.1,0,5.9,0.1,8.4,0.2c11.1,0.4,17.2,0.7,26.5-8.7l1.1,1.1c-9.9,9.9-16.6,9.6-27.7,9.2
			c-2.3-0.1-4.8-0.2-7.6-0.2v20.7h121.1V66.5c-1.6,0-3,0-4.4,0c-13,0.1-17.9,0.2-29.7-9.7l1-1.2c11.4,9.5,15.7,9.5,28.7,9.3
			c1.6,0,3.3,0,5.2,0h0.8V88.8z"/>
	</g>
	<g>
		<path class="st1" d="M62.4,68.9c-19.3,0-34.9-15.5-34.9-34.4S43.2,0,62.4,0s34.9,15.5,34.9,34.4S81.7,68.9,62.4,68.9z M62.4,1.6
			c-18.4,0-33.3,14.7-33.3,32.9c0,18.1,15,32.9,33.3,32.9s33.3-14.7,33.3-32.9C95.8,16.3,80.8,1.6,62.4,1.6z"/>
	</g>
	<g>
		<g>
			<path class="st1" d="M64.7,45.7l-3.4-0.3l-1.4-0.9l-12.6,1l0.3-19.2l1.9-0.3l2.4-2.7l7.9,0.2l5.3-0.2l8.2,0.2l2.6,3l2.2-1.1v19.7
				l-11.9-0.7L64.7,45.7z M61.6,44.7l2.9,0.2l1.5-1.2l11.4,0.7V26.9l-1.6,0.8l-2.7-3.2l-7.8-0.2l-5.3,0.2l-7.6-0.2l-2.4,2.6L48.3,27
				l-0.2,17.6l12-0.9L61.6,44.7z"/>
		</g>
		<g>
			<path class="st1" d="M63.4,41.5l-0.2-0.1c-3.2-1.8-6.8-2.1-11.1-0.9l-0.5,0.1l-0.5-15.8l0.8,0l0.5,14.8c4.2-1.1,7.8-0.7,11,1
				c2.1-1.6,5.4-2,10-1.2l-0.2-15l0.8,0l0.2,16l-0.5-0.1c-4.8-0.9-8.1-0.6-10.1,1.1L63.4,41.5z"/>
		</g>
		<g>
			<path class="st1" d="M48.7,43.8l0.5-17.1l0.8,0L49.5,43c4.5-0.4,9-0.7,13.4-0.9c2.8-0.1,5.6,0.1,8.3,0.2c1.4,0.1,2.9,0.2,4.4,0.2
				l-0.3-15.1l0.8,0l0.3,15.9l-0.4,0c-1.6,0-3.2-0.1-4.8-0.2c-2.7-0.2-5.5-0.3-8.3-0.2c-4.6,0.2-9.3,0.5-13.8,0.9L48.7,43.8z"/>
		</g>
		<g>
			
				<rect x="48.3" y="41.3" transform="matrix(0.6503 -0.7597 0.7597 0.6503 -13.9993 53.0022)" class="st1" width="4.5" height="0.8"/>
		</g>
		<g>
			<rect x="74.5" y="39.4" transform="matrix(0.7909 -0.612 0.612 0.7909 -9.5372 54.4475)" class="st1" width="0.8" height="3.6"/>
		</g>
		<g>
			<polygon class="st0" points="62.1,42.4 62.1,36.4 59.6,33.2 60,19.2 55.9,19 54,19.7 52.3,19.7 52,14.6 54,14.6 54.9,15.1 
				60,15.1 59.8,12.9 58.3,10 58.3,7.1 66.1,7.1 65.6,10.2 64.9,12.7 64.9,14.8 70.4,14.8 70.4,14.1 71.9,14.1 71.9,19.7 70.4,19.7 
				68.7,18.7 65.1,18.7 65.2,32.9 63.4,36.4 63.4,42.6 			"/>
		</g>
		<g>
			<path class="st0" d="M57.5,26v0.9h-3.2V26H57.5L57.5,26z M57.5,27.5v0.9h-3.2v-0.9H57.5L57.5,27.5z M57.5,29v0.9h-3.2V29H57.5
				L57.5,29z M57.5,30.5v0.9h-3.2v-0.9H57.5L57.5,30.5z M57.5,32v0.9h-3.2V32H57.5L57.5,32z M57.5,33.5v0.9h-3.2v-0.9H57.5
				L57.5,33.5z M57.5,35v0.9h-3.2V35H57.5L57.5,35z M57.5,36.5v0.9h-3.2v-0.9H57.5z"/>
		</g>
		<g>
			<path class="st0" d="M71.5,25.8v0.9h-3.2v-0.9H71.5L71.5,25.8z M71.5,27.3v0.9h-3.2v-0.9H71.5L71.5,27.3z M71.5,28.8v0.9h-3.2
				v-0.9H71.5L71.5,28.8z M71.5,30.3v0.9h-3.2v-0.9H71.5L71.5,30.3z M71.5,31.8v0.9h-3.2v-0.9H71.5L71.5,31.8z M71.5,33.3v0.9h-3.2
				v-0.9H71.5L71.5,33.3z M71.5,34.8v0.9h-3.2v-0.9H71.5L71.5,34.8z M71.5,36.3v0.9h-3.2v-0.9H71.5z"/>
		</g>
	</g>
	<g>
		<g>
			<g>
				<path class="st1" d="M62.2,61.1l-0.2-0.2c-6.9-6-14.7-8.7-23.7-8.1l-0.4,0v-7.6l0.4,0c10.3-0.8,18,0.9,24,5.2
					c7.3-4.1,15.8-5.9,25.4-5.5l0.4,0L87,52.3l-0.4,0c-7.5-0.5-15.4,2.4-24.2,8.6L62.2,61.1z M40.5,51.9c8.2,0,15.3,2.7,21.8,8.2
					c8.7-6.1,16.6-9,24.1-8.6l0.8-5.7c-9.3-0.4-17.7,1.5-24.7,5.5l-0.2,0.1L62,51.2c-5.9-4.3-13.3-6-23.3-5.3v6
					C39.2,51.9,39.9,51.9,40.5,51.9z"/>
			</g>
			<g>
				<polygon class="st1" points="44.1,56.2 38,52.9 38.4,52.2 43.4,54.8 43.5,52.5 44.3,52.5 				"/>
			</g>
			<g>
				<polygon class="st1" points="80.8,56.1 80.6,52.2 81.4,52.2 81.5,54.7 86.3,51.8 86.7,52.4 				"/>
			</g>
		</g>
		<g>
			<path class="st0" d="M41.3,50.1c0-0.7,0-1.4,0-2.1c0-0.7,0-1.4,0-2.1c0.2,0.1,0.4,0.1,0.7,0.2c0,0.6,0,1.1,0,1.7
				c0,0.6,0,1.1,0,1.7c0.6,0.1,1.1,0.3,1.7,0.4c0,0.2,0,0.5,0,0.7C42.9,50.5,42.1,50.3,41.3,50.1L41.3,50.1z M44,48.8
				c0-0.4,0.1-0.8,0.2-1c0.1-0.2,0.2-0.3,0.3-0.5c0.1-0.1,0.3-0.2,0.4-0.2c0.2,0,0.4,0,0.7,0c0.5,0.1,0.9,0.4,1.2,0.9
				c0.1,0.2,0.3,0.5,0.3,0.7c0.1,0.3,0.1,0.6,0.1,0.9c0,0.3,0,0.6-0.1,0.8c-0.1,0.2-0.2,0.4-0.3,0.6c-0.3,0.3-0.7,0.4-1.2,0.2
				c-0.5-0.1-0.9-0.4-1.2-0.9c-0.1-0.2-0.3-0.5-0.3-0.7C44,49.4,44,49.1,44,48.8L44,48.8z M44.7,49c0,0.5,0.1,0.8,0.3,1.1
				c0.2,0.3,0.4,0.5,0.7,0.5c0.3,0.1,0.5,0,0.7-0.2c0.1-0.1,0.2-0.2,0.2-0.4c0-0.2,0.1-0.4,0.1-0.6c0-0.5-0.1-0.8-0.3-1.1
				c-0.2-0.3-0.4-0.4-0.7-0.5c-0.3-0.1-0.5,0-0.7,0.2C44.8,48.2,44.7,48.5,44.7,49L44.7,49z M48.6,52c-0.2-0.7-0.4-1.4-0.6-2.2
				c-0.2-0.7-0.4-1.4-0.6-2.2c0.2,0.1,0.5,0.1,0.7,0.2c0.1,0.5,0.3,1.1,0.4,1.6c0.1,0.5,0.3,1.1,0.4,1.6c0.1-0.5,0.3-0.9,0.4-1.4
				c0.1-0.5,0.3-0.9,0.4-1.4c0.2,0.1,0.5,0.1,0.7,0.2c-0.2,0.6-0.4,1.2-0.6,1.8c-0.2,0.6-0.4,1.2-0.6,1.8
				C49.1,52.1,48.9,52.1,48.6,52L48.6,52z M50.9,52.6c0-0.7,0-1.3,0-2c0-0.7,0-1.3,0-2c0.8,0.2,1.7,0.5,2.5,0.7c0,0.2,0,0.4,0,0.7
				c-0.6-0.2-1.2-0.3-1.8-0.5c0,0.3,0,0.6,0,0.9c0.6,0.2,1.1,0.3,1.7,0.5c0,0.2,0,0.4,0,0.7c-0.6-0.1-1.1-0.3-1.7-0.4
				c0,0.2,0,0.4,0,0.5c0,0.2,0,0.4,0,0.5c0.6,0.2,1.2,0.3,1.9,0.5c0,0.2,0,0.4,0,0.7C52.6,53,51.7,52.8,50.9,52.6L50.9,52.6z
				 M55.3,53.7c0-0.6,0-1.3,0-1.9c0-0.6,0-1.3,0-1.9c0.2,0.1,0.5,0.1,0.7,0.2c0,0.6,0,1.3,0,1.9c0,0.6,0,1.3,0,1.9
				C55.7,53.8,55.5,53.8,55.3,53.7L55.3,53.7z M56.4,52.8c0.2,0,0.4,0.1,0.7,0.1c0,0.3,0.1,0.5,0.2,0.6c0.1,0.1,0.3,0.3,0.5,0.3
				c0.2,0.1,0.4,0,0.5,0c0.1-0.1,0.2-0.2,0.2-0.3c0-0.1,0-0.2-0.1-0.2c0-0.1-0.1-0.2-0.2-0.2c-0.1-0.1-0.3-0.2-0.5-0.3
				c-0.4-0.2-0.6-0.4-0.8-0.6c-0.2-0.3-0.3-0.5-0.3-0.9c0-0.2,0-0.4,0.1-0.5c0.1-0.1,0.2-0.2,0.4-0.3c0.2,0,0.4,0,0.7,0
				c0.4,0.1,0.7,0.3,0.9,0.6c0.2,0.3,0.3,0.6,0.3,0.9c-0.2-0.1-0.5-0.1-0.7-0.1c0-0.2-0.1-0.4-0.2-0.5c-0.1-0.1-0.2-0.2-0.4-0.2
				c-0.2-0.1-0.3,0-0.5,0c-0.1,0-0.1,0.1-0.1,0.2c0,0.1,0,0.2,0.1,0.3c0.1,0.1,0.3,0.2,0.6,0.4c0.3,0.2,0.6,0.3,0.7,0.5
				c0.2,0.1,0.3,0.3,0.4,0.5c0.1,0.2,0.1,0.4,0.1,0.6c0,0.2-0.1,0.4-0.2,0.6c-0.1,0.2-0.3,0.3-0.5,0.3c-0.2,0-0.4,0-0.7,0
				c-0.4-0.1-0.7-0.3-1-0.6C56.6,53.6,56.5,53.2,56.4,52.8L56.4,52.8z M61.8,55.4c0-0.5,0-1,0-1.5c0-0.5,0-1,0-1.5
				c-0.3-0.1-0.7-0.2-1-0.3c0-0.2,0-0.4,0-0.6c0.9,0.2,1.8,0.5,2.7,0.7c0,0.2,0,0.4,0,0.6c-0.3-0.1-0.7-0.1-1-0.2c0,0.5,0,1,0,1.5
				c0,0.5,0,1,0,1.5C62.2,55.5,62,55.4,61.8,55.4L61.8,55.4z M63.6,53.9c0-0.3,0.1-0.6,0.2-0.9c0.1-0.2,0.2-0.4,0.3-0.5
				c0.1-0.2,0.3-0.3,0.4-0.4c0.2-0.2,0.4-0.3,0.7-0.4c0.5-0.2,0.9-0.1,1.2,0.1c0.1,0.1,0.3,0.3,0.3,0.5c0.1,0.2,0.1,0.4,0.1,0.7
				c0,0.3,0,0.5-0.1,0.8c-0.1,0.2-0.2,0.5-0.3,0.6c-0.3,0.4-0.7,0.7-1.2,0.8c-0.5,0.1-0.9,0.1-1.2-0.1c-0.1-0.1-0.3-0.3-0.3-0.4
				C63.7,54.4,63.6,54.1,63.6,53.9L63.6,53.9z M64.3,53.7c0,0.4,0.1,0.6,0.3,0.8c0.2,0.1,0.4,0.2,0.7,0.1c0.3-0.1,0.5-0.2,0.7-0.5
				c0.1-0.1,0.1-0.3,0.2-0.4c0-0.2,0.1-0.3,0.1-0.5c0-0.4-0.1-0.7-0.3-0.8c-0.2-0.1-0.4-0.2-0.7-0.1c-0.3,0.1-0.5,0.3-0.7,0.5
				C64.4,53,64.3,53.3,64.3,53.7L64.3,53.7z M68.5,53.1c0.2-0.1,0.4-0.2,0.7-0.3c0,0.2,0.1,0.4,0.2,0.4c0.1,0.1,0.3,0.1,0.5,0
				c0.2-0.1,0.4-0.2,0.5-0.3c0.1-0.1,0.2-0.3,0.2-0.4c0-0.1,0-0.2-0.1-0.2c0,0-0.1-0.1-0.2-0.1c-0.1,0-0.3,0-0.5,0
				c-0.4,0-0.6,0-0.8-0.1c-0.2-0.1-0.3-0.3-0.3-0.6c0-0.2,0-0.4,0.1-0.5c0.1-0.2,0.2-0.3,0.4-0.5c0.2-0.1,0.4-0.2,0.7-0.3
				c0.4-0.1,0.7-0.1,0.9,0c0.2,0.1,0.3,0.4,0.3,0.7c-0.2,0.1-0.5,0.2-0.7,0.2c0-0.2-0.1-0.3-0.2-0.3c-0.1-0.1-0.2,0-0.4,0
				c-0.2,0.1-0.4,0.2-0.5,0.3c-0.1,0.1-0.1,0.2-0.1,0.3c0,0.1,0,0.1,0.1,0.2c0.1,0,0.3,0.1,0.6,0.1c0.3,0,0.6,0,0.7,0
				c0.2,0,0.3,0.1,0.4,0.3c0.1,0.1,0.1,0.3,0.1,0.5c0,0.2-0.1,0.4-0.2,0.6c-0.1,0.2-0.3,0.4-0.5,0.5c-0.2,0.1-0.4,0.2-0.7,0.3
				c-0.4,0.1-0.7,0.1-1,0C68.7,53.7,68.6,53.5,68.5,53.1L68.5,53.1z M71.8,53.3c0-0.6,0-1.2,0-1.8c0-0.6,0-1.2,0-1.8
				c0.8-0.3,1.6-0.5,2.5-0.8c0,0.2,0,0.4,0,0.6c-0.6,0.2-1.2,0.4-1.8,0.5c0,0.3,0,0.5,0,0.8c0.6-0.2,1.1-0.3,1.7-0.5
				c0,0.2,0,0.4,0,0.6c-0.6,0.2-1.1,0.3-1.7,0.5c0,0.2,0,0.3,0,0.5c0,0.2,0,0.3,0,0.5c0.6-0.2,1.2-0.3,1.9-0.5c0,0.2,0,0.4,0,0.6
				C73.5,52.9,72.7,53.1,71.8,53.3L71.8,53.3z M74.9,52.5c0-0.6,0-1.3,0-1.9c0-0.6,0-1.3,0-1.9c0.5-0.1,0.9-0.3,1.4-0.4
				c0.4-0.1,0.6-0.2,0.8-0.1c0.2,0,0.3,0.1,0.4,0.3c0.1,0.1,0.1,0.3,0.1,0.6c0,0.3-0.1,0.6-0.2,0.8c-0.1,0.2-0.4,0.4-0.7,0.5
				c0.1,0.1,0.3,0.1,0.4,0.2c0.1,0.1,0.2,0.3,0.4,0.5c0.1,0.2,0.3,0.4,0.4,0.6c-0.3,0.1-0.5,0.1-0.8,0.2c-0.2-0.2-0.3-0.5-0.5-0.7
				c-0.2-0.2-0.3-0.4-0.4-0.5c-0.1-0.1-0.1-0.1-0.2-0.1c-0.1,0-0.2,0-0.3,0.1c0,0-0.1,0-0.1,0c0,0.3,0,0.5,0,0.8c0,0.3,0,0.5,0,0.8
				C75.4,52.4,75.2,52.4,74.9,52.5L74.9,52.5z M75.6,50.1c0.2,0,0.3-0.1,0.5-0.1c0.3-0.1,0.5-0.2,0.6-0.2c0.1-0.1,0.1-0.1,0.2-0.2
				c0-0.1,0.1-0.2,0.1-0.3c0-0.1,0-0.2-0.1-0.3c-0.1-0.1-0.1-0.1-0.3-0.1c-0.1,0-0.2,0.1-0.5,0.1c-0.2,0.1-0.4,0.1-0.5,0.2
				C75.6,49.5,75.6,49.8,75.6,50.1L75.6,50.1z M79.1,51.4c0.2-0.1,0.5-0.1,0.7-0.2c0.2-0.7,0.4-1.4,0.6-2.2c0.2-0.7,0.4-1.5,0.6-2.2
				c-0.2,0.1-0.5,0.1-0.7,0.2c-0.1,0.5-0.3,1.1-0.4,1.6c-0.1,0.5-0.3,1.1-0.4,1.6c-0.1-0.4-0.3-0.9-0.4-1.3
				c-0.1-0.4-0.3-0.9-0.4-1.3c-0.2,0.1-0.5,0.2-0.7,0.2c0.2,0.6,0.4,1.2,0.6,1.8C78.7,50.2,78.9,50.8,79.1,51.4L79.1,51.4z
				 M81.3,50.7c0-0.7,0-1.3,0-2c0-0.7,0-1.3,0-2c0.8-0.3,1.6-0.5,2.5-0.8c0,0.2,0,0.5,0,0.7c-0.6,0.2-1.2,0.4-1.8,0.6
				c0,0.3,0,0.6,0,0.9c0.6-0.2,1.1-0.3,1.7-0.5c0,0.2,0,0.5,0,0.7c-0.6,0.2-1.1,0.3-1.7,0.5c0,0.2,0,0.4,0,0.6c0,0.2,0,0.4,0,0.6
				c0.6-0.2,1.2-0.3,1.9-0.5c0,0.2,0,0.5,0,0.7C83,50.3,82.2,50.5,81.3,50.7z"/>
		</g>
	</g>
</g>
</svg>
