<?xml version="1.0" encoding="utf-8"?>
<!-- Generator: Adobe Illustrator 16.0.0, SVG Export Plug-In . SVG Version: 6.00 Build 0)  -->
<!DOCTYPE svg PUBLIC "-//W3C//DTD SVG 1.1//EN" "http://www.w3.org/Graphics/SVG/1.1/DTD/svg11.dtd">
<svg version="1.1" id="Layer_1" xmlns="http://www.w3.org/2000/svg" xmlns:xlink="http://www.w3.org/1999/xlink" x="0px" y="0px"
	 width="1344.134px" height="639.705px" viewBox="-24.743 152.295 1344.134 639.705"
	 enable-background="new -24.743 152.295 1344.134 639.705" xml:space="preserve">
<circle fill="#FFFFFF" cx="324.897" cy="472.938" r="217.16"/>
<g>
	<g>
		<path fill="#020001" stroke="#BF134C" stroke-width="12" stroke-miterlimit="10" d="M529.692,266.026
			c-54.998-54.998-128.132-85.286-205.91-85.286c-77.779,0-150.912,30.288-205.91,85.286
			c-54.998,55.008-85.286,128.13-85.286,205.91c0,77.789,30.288,150.912,85.286,205.909c54.998,54.999,128.131,85.287,205.91,85.287
			c77.778,0,150.912-30.288,205.91-85.287c54.999-54.997,85.285-128.12,85.285-205.909
			C614.978,394.157,584.691,321.034,529.692,266.026z M322.282,690.758c-124.17,0-216.5-94.642-216.5-218.822
			c0-124.169,101.567-219.767,216.5-219.767c113.5,0,218.5,94.937,218.5,219.107C540.782,595.456,446.451,690.758,322.282,690.758z"
			/>
	</g>
</g>
<g>
	<g>
		<g>
			<path fill="#F1A948" d="M338.72,552.345l-21.668-2.241l-8.966-5.978l-79.946,6.725l2.24-122.536l11.955-2.24l14.943-17.186
				l50.061,1.495l33.623-1.495l52.303,1.495l16.438,19.427l14.196-6.726V548.61l-75.465-4.484L338.72,552.345z M318.546,546.367
				l18.681,1.495l9.713-7.474l72.475,3.737V432.798l-10.46,5.229l-17.186-20.92l-50.061-1.494l-32.876,1.494l-48.564-1.494
				l-14.944,16.438l-10.46,0.748l-1.494,112.075l76.211-5.979L318.546,546.367z"/>
		</g>
		<g>
			<path fill="#F1A948" d="M330.501,525.446l-1.494-0.747c-20.174-11.207-43.336-13.448-70.98-5.978l-2.988,1.494l-2.989-100.868
				h5.23l2.989,94.145c26.896-6.726,50.06-4.483,70.232,6.725c13.449-10.461,34.37-12.702,63.51-7.472l-1.493-95.638h5.229
				l1.495,101.615l-2.989-0.747c-30.634-5.978-51.555-3.735-64.257,6.725L330.501,525.446z"/>
		</g>
		<g>
			<path fill="#F1A948" d="M236.357,540.39l3.735-109.085h5.229l-2.988,103.856c28.394-2.241,57.532-4.483,85.179-5.979
				c17.932-0.747,35.863,0.747,53.049,1.494c8.966,0.747,18.68,1.494,28.393,1.494l-2.242-96.384h5.23l2.242,101.615h-2.242
				c-10.46,0-20.174-0.747-30.634-1.494c-17.186-1.494-35.117-2.241-53.05-1.494c-29.14,1.494-59.025,2.988-88.166,5.978
				L236.357,540.39L236.357,540.39z"/>
		</g>
		<g>
			
				<rect x="234.359" y="524.67" transform="matrix(0.6503 -0.7597 0.7597 0.6503 -313.6503 373.2256)" fill="#F1A948" width="28.394" height="5.231"/>
		</g>
		<g>
			
				<rect x="400.71" y="512.173" transform="matrix(0.7909 -0.6119 0.6119 0.7909 -236.1664 356.3015)" fill="#F1A948" width="5.231" height="23.164"/>
		</g>
		<g>
			<polygon fill="#F1A948" points="322.282,531.424 322.282,493.318 305.845,472.397 308.833,383.484 282.683,381.99 
				269.98,386.473 259.52,386.473 257.278,354.345 269.98,354.345 275.958,357.334 308.833,357.334 307.339,343.137 
				297.626,325.205 297.626,306.526 347.687,306.526 343.95,325.952 339.467,342.39 339.467,355.839 374.584,355.839 
				374.584,351.356 384.298,351.356 384.298,386.473 374.584,386.473 364.124,380.496 340.962,380.496 341.709,470.903 
				330.501,493.318 330.501,532.918 			"/>
		</g>
		<g>
			<path fill="#F1A948" d="M292.396,426.82v5.978h-20.174v-5.978H292.396L292.396,426.82z M292.396,436.534v5.977h-20.174v-5.977
				H292.396L292.396,436.534z M292.396,446.247v5.978h-20.174v-5.978H292.396L292.396,446.247z M292.396,455.213v5.979h-20.174
				v-5.979H292.396L292.396,455.213z M292.396,464.926v5.979h-20.174v-5.979H292.396L292.396,464.926z M292.396,474.64v5.978
				h-20.174v-5.978H292.396L292.396,474.64z M292.396,484.353v5.979h-20.174v-5.979H292.396L292.396,484.353z M292.396,494.065
				v5.229h-20.174v-5.978h20.174V494.065z"/>
		</g>
		<g>
			<path fill="#F1A948" d="M382.056,425.326v5.977h-20.174v-5.977H382.056L382.056,425.326z M382.056,435.039v5.979h-20.174v-5.979
				H382.056L382.056,435.039z M382.056,444.752v5.979h-20.174v-5.979H382.056L382.056,444.752z M382.056,454.466v5.979h-20.174
				v-5.979H382.056L382.056,454.466z M382.056,464.179v5.23h-20.174v-5.979L382.056,464.179L382.056,464.179z M382.056,473.145
				v5.979h-20.174v-5.979H382.056L382.056,473.145z M382.056,482.858v5.977h-20.174v-5.977H382.056L382.056,482.858z
				 M382.056,492.571v5.978h-20.174v-5.978H382.056z"/>
		</g>
	</g>
</g>
<g>
	<g>
		<g>
			<g>
				<path fill="#C01B41" d="M322.282,650.224l-1.494-1.494c-43.336-37.357-93.396-54.543-150.182-50.808h-2.241v-48.565h2.241
					c65.751-5.23,114.316,5.978,153.17,32.875c46.324-26.15,100.868-37.358,162.136-35.117h2.242l-6.726,47.071h-2.241
					c-47.818-2.988-97.879,14.943-153.917,54.543L322.282,650.224z M184.056,591.945c52.302,0,97.132,17.185,138.974,52.302
					c55.291-38.854,106.099-57.532,153.917-54.544l5.229-36.611c-59.025-2.241-112.822,9.714-157.652,35.117l-1.494,0.747
					l-2.241-1.494c-37.357-27.646-84.431-38.104-148.688-33.623v38.105C175.837,591.945,180.32,591.945,184.056,591.945z"/>
			</g>
			<g>
				<polygon fill="#C01B41" points="207.218,619.59 168.365,597.922 170.606,594.187 202.735,610.624 203.482,595.681 
					208.712,595.681 				"/>
			</g>
			<g>
				<polygon fill="#C01B41" points="441.082,618.843 439.588,594.187 444.818,594.187 445.565,609.877 476.199,591.197 
					478.44,594.934 				"/>
			</g>
		</g>
		<g>
			<path fill="#C01B41" d="M189.286,580.737c0-4.483,0-8.967,0-13.449s0-8.966,0-13.449c1.494,0.747,2.241,0.747,4.482,1.495
				c0,3.735,0,6.724,0,10.46s0,6.725,0,10.46c3.735,0.748,6.725,2.242,10.461,2.242c0,1.494,0,2.988,0,4.481
				C199.746,582.979,194.517,581.484,189.286,580.737L189.286,580.737z M206.47,572.519c0-2.24,0.747-5.229,1.494-6.725
				s1.495-2.241,2.242-2.988c0.747-0.748,2.241-1.495,2.241-1.495c1.494,0,2.241,0,4.483,0c2.987,0.747,5.977,2.242,7.472,5.979
				c0.747,1.494,2.241,2.989,2.241,4.483c0.747,2.24,0.747,3.734,0.747,5.978c0,2.241,0,3.735-0.747,5.229
				c-0.747,1.494-1.494,2.242-2.241,3.736c-2.242,2.241-4.483,2.241-7.472,1.494c-2.989-0.747-5.979-2.241-7.473-5.978
				c-0.748-1.494-2.242-2.988-2.242-4.482C206.47,576.254,206.47,574.013,206.47,572.519L206.47,572.519z M210.954,573.266
				c0,2.988,0.747,5.23,2.241,6.726s2.241,2.988,4.483,2.988c2.24,0.746,2.987,0,4.481-1.494c0.747-0.747,1.494-1.494,1.494-2.241
				c0-1.494,0.748-2.241,0.748-3.736c0-2.987-0.748-5.229-2.242-6.725c-1.494-2.241-2.241-2.241-4.481-2.988
				c-2.242-0.747-2.989,0-4.483,1.494S210.954,570.277,210.954,573.266L210.954,573.266z M235.61,592.692
				c-1.494-4.483-2.241-8.968-3.735-14.196c-1.495-4.483-2.242-8.967-3.735-14.196c1.493,0.747,2.988,0.747,4.482,1.494
				c0.747,2.988,2.241,6.725,2.241,10.46c0,3.736,2.241,6.725,2.241,10.461c0.748-2.989,2.242-5.978,2.242-8.966
				c0.747-2.989,2.24-5.979,2.24-8.967c1.494,0.747,2.988,0.747,4.483,1.495c-1.495,3.734-2.242,7.472-3.736,11.207
				s-2.241,7.472-3.734,11.208C239.347,593.438,237.853,593.438,235.61,592.692L235.61,592.692z M250.554,596.428
				c0-4.481,0-8.219,0-12.702c0-4.481,0-8.219,0-12.7c5.229,1.493,10.461,2.987,15.689,4.481c0,1.494,0,2.242,0,4.483
				c-3.735-1.494-7.472-2.241-11.207-2.989c0,2.242,0,3.736,0,5.978c3.735,1.494,6.725,2.242,10.46,2.989c0,1.494,0,2.241,0,4.482
				c-3.734-0.747-6.725-2.241-10.46-2.241c0,1.494,0,2.241,0,2.988c0,1.495,0,2.242,0,2.988c3.735,1.494,7.472,2.241,11.954,2.988
				c0,1.494,0,2.242,0,4.483C261.761,598.669,255.784,597.922,250.554,596.428L250.554,596.428z M278.946,603.152
				c0-3.735,0-8.22,0-11.955s0-8.22,0-11.954c1.494,0.747,2.988,0.747,4.482,1.494c0,3.735,0,8.219,0,11.955
				c0,3.734,0,8.219,0,11.953C281.188,603.899,279.693,603.899,278.946,603.152L278.946,603.152z M285.671,597.922
				c1.494,0,2.241,0.747,4.483,0.747c0,2.242,0.747,2.989,1.494,3.736s2.241,2.24,2.987,2.24c1.494,0.747,2.241,0,2.989,0
				c0.747-0.746,1.494-1.493,1.494-2.24s0-1.494-0.747-1.494c0-0.747-0.747-1.494-1.494-1.494c-0.747-0.748-2.242-1.495-2.988-2.242
				c-2.241-1.494-3.735-2.241-5.23-3.734c-1.494-2.242-2.241-2.989-2.241-5.979c0-1.494,0-2.241,0.747-2.988
				c0.747-0.748,1.494-1.494,2.242-2.241c1.494,0,2.241,0,4.482,0c2.24,0.747,4.482,2.241,5.978,3.735s2.241,3.735,2.241,5.978
				c-1.494-0.747-2.988-0.747-4.482-0.747c0-1.494-0.748-2.241-1.495-2.988s-1.493-1.494-2.24-1.494c-1.494-0.747-2.241,0-2.988,0
				s-0.747,0.747-0.747,1.494s0,1.494,0.747,2.241s2.241,1.494,3.735,2.242c1.493,0.747,3.735,2.24,4.482,2.987
				c1.494,0.747,2.241,2.241,2.241,2.988c0,0.748,0.747,2.242,0.747,3.736s-0.747,2.24-1.494,3.734
				c-0.747,1.495-2.241,2.242-2.988,2.242c-0.748,0-2.242,0-4.482,0c-2.241-0.747-4.483-2.242-6.726-3.736
				C287.165,602.405,286.418,600.164,285.671,597.922L285.671,597.922z M320.041,614.36c0-2.989,0-6.726,0-9.715
				c0-2.987,0-6.725,0-9.713c-2.242-0.747-4.482-1.493-6.725-2.24c0-1.495,0-2.242,0-3.736c5.978,1.494,11.207,2.989,17.185,4.483
				c0,1.493,0,2.24,0,3.734c-2.241-0.747-4.481-0.747-6.725-1.494c0,2.988,0,6.726,0,9.713c0,2.989,0,6.726,0,9.715
				C322.282,615.107,321.535,614.36,320.041,614.36L320.041,614.36z M331.248,604.647c0-2.241,0.747-3.735,1.494-5.979
				c0.747-1.494,1.495-2.241,2.242-2.988c0.747-1.494,2.241-2.24,2.241-2.24c1.494-1.495,2.24-2.242,4.482-2.242
				c2.988-1.494,5.979-0.747,7.473,0.747c0.746,0.748,2.24,2.241,2.24,2.988c0.747,1.494,0.747,2.241,0.747,4.483
				c0,2.241,0,2.988-0.747,5.229c-0.747,1.494-1.494,2.989-2.24,3.736c-2.242,2.241-4.483,4.482-7.473,5.229
				c-2.988,0.748-5.978,0.748-7.472-0.747c-0.748-0.747-2.242-2.241-2.242-2.241C331.995,607.636,331.248,606.141,331.248,604.647
				L331.248,604.647z M335.731,603.152c0,2.24,0.747,3.735,2.241,5.229c1.493,0.747,2.24,1.494,4.482,0.747
				c2.241-0.747,2.988-1.494,4.482-2.989c0.747-0.747,0.747-2.24,1.494-2.24c0-1.494,0.747-2.241,0.747-2.988
				c0-2.242-0.747-4.483-2.241-5.23s-2.241-1.494-4.482-0.747c-2.242,0.747-2.989,2.241-4.482,2.988
				C336.479,598.669,335.731,600.911,335.731,603.152L335.731,603.152z M362.63,599.417c1.494-0.748,2.241-1.495,4.482-2.242
				c0,1.494,0.747,2.242,1.494,2.242c0.747,0.747,2.242,0.747,2.989,0c1.493-0.748,2.24-1.495,2.987-2.242s1.494-2.241,1.494-2.241
				c0-0.747,0-1.493-0.747-1.493c0,0-0.747-0.747-1.494-0.747s-2.241,0-2.987,0c-2.242,0-3.736,0-5.23-0.747
				c-1.494-0.748-2.241-2.242-2.241-3.736s0-2.241,0.747-2.988c0.747-1.495,1.494-2.242,2.241-2.988
				c1.494-0.747,2.241-1.494,4.483-2.241c2.24-0.747,4.481-0.747,5.977,0s2.242,2.241,2.242,4.482
				c-1.494,0.747-2.989,1.494-4.483,1.494c0-1.494-0.747-2.242-1.494-2.242c-0.747-0.747-1.493,0-2.24,0
				c-1.495,0.748-2.242,1.495-2.989,2.242c-0.747,1.494-0.747,2.241-0.747,2.988s0,0.747,0.747,1.494
				c0.747,0,2.241,0.747,3.736,0.747c2.24,0,3.734,0,4.481,0c1.495,0,2.242,0.747,2.242,2.242c0.747,0.746,0.747,2.24,0.747,2.987
				s-0.747,2.241-1.494,3.736c-0.748,1.494-2.242,2.241-2.989,2.988c-1.494,0.747-2.241,1.493-4.482,2.24s-4.482,0.747-6.725,0
				C364.124,603.152,363.377,602.405,362.63,599.417L362.63,599.417z M383.55,600.911c0-3.736,0-7.473,0-11.208s0-7.472,0-11.207
				c5.23-2.242,10.461-2.989,15.691-5.23c0,1.494,0,2.241,0,3.735c-3.736,1.495-7.473,2.242-11.208,2.989c0,2.241,0,2.987,0,5.229
				c3.735-1.495,6.725-2.242,10.46-2.988c0,1.493,0,2.241,0,3.735c-3.735,1.494-6.725,2.241-10.46,2.988c0,1.494,0,2.241,0,2.989
				c0,0.747,0,2.24,0,2.987c3.735-1.493,7.472-2.24,11.955-2.987c0,1.493,0,2.24,0,3.734
				C394.758,597.922,389.527,599.417,383.55,600.911L383.55,600.911z M403.724,595.681c0-3.734,0-8.219,0-11.955
				c0-3.734,0-8.219,0-11.953c2.988-0.747,5.978-2.241,8.966-2.241c2.242-0.748,3.735-1.495,5.229-0.748
				c1.494,0,2.241,0.748,2.241,2.242c0.747,0.747,0.747,2.24,0.747,3.734s-0.747,3.736-1.494,5.23s-2.241,2.241-4.481,2.987
				c0.747,0.747,2.24,0.747,2.24,1.495c0.747,0.747,1.494,2.241,2.241,2.988c0.747,1.494,2.242,2.241,2.242,3.736
				c-2.242,0.747-2.989,0.747-5.23,1.494c-1.493-1.494-2.24-2.989-2.988-4.483c-1.494-1.494-2.241-2.241-2.241-2.988
				c-0.747-0.747-0.747-0.747-1.494-0.747s-1.494,0-2.241,0.747h-0.747c0,2.241,0,2.988,0,5.229c0,2.242,0,2.989,0,5.229
				C406.713,594.934,405.218,594.934,403.724,595.681L403.724,595.681z M408.207,580.737c1.494,0,2.241-0.747,2.988-0.747
				c2.241-0.747,2.989-1.494,3.736-1.494c0.747-0.747,0.747-0.747,1.493-1.495c0-0.747,0.747-1.494,0.747-2.241s0-1.494-0.747-2.241
				c-0.746-0.746-0.746-0.746-2.24-0.746c-0.748,0-1.495,0.746-2.989,0.746c-1.494,0.747-2.241,0.747-2.988,1.494
				C408.207,576.254,408.207,578.496,408.207,580.737L408.207,580.737z M430.622,588.956c1.494-0.747,2.988-0.747,4.482-1.494
				c1.495-4.483,2.242-8.966,3.735-14.196c1.494-4.482,2.241-9.713,3.735-14.195c-1.494,0.747-2.988,0.747-4.482,1.493
				c-0.746,2.989-2.24,6.726-2.24,10.462c-0.748,2.987-2.242,6.725-2.242,10.46c-0.747-2.241-2.241-5.979-2.241-8.22
				c-0.747-2.24-2.241-5.978-2.241-8.219c-1.495,0.747-2.988,1.494-4.482,1.494c1.494,3.736,2.24,7.472,3.734,11.208
				C427.633,580.737,429.128,585.221,430.622,588.956L430.622,588.956z M444.071,584.474c0-4.482,0-8.22,0-12.701
				c0-4.483,0-8.22,0-12.702c5.229-2.241,10.46-2.988,15.689-5.23c0,1.495,0,2.989,0,4.483c-3.735,1.494-7.472,2.24-11.207,3.734
				c0,2.242,0,3.736,0,5.979c3.735-1.494,6.725-2.241,10.461-2.988c0,1.494,0,2.988,0,4.482c-3.736,1.495-6.726,2.241-10.461,2.988
				c0,1.494,0,2.241,0,3.735c0,1.495,0,2.242,0,3.736c3.735-1.494,7.472-2.241,11.954-2.989c0,1.495,0,2.989,0,4.483
				C455.278,581.484,450.048,582.979,444.071,584.474z"/>
		</g>
	</g>
</g>
<path fill="none" d="M401.909,254.177c117.4,43.929,177.102,174.325,133.354,291.247c-43.75,116.926-174.39,176.102-291.79,132.173
	C126.075,633.664,66.37,503.269,110.119,386.345C153.872,269.422,284.507,210.249,401.909,254.177z"/>
<text transform="matrix(0.0928 -0.9916 0.9956 0.0932 94.458 468.8691)" fill="#FFFFFF" font-family="'Tahoma-Bold'" font-size="60">H</text>
<text transform="matrix(0.3004 -0.9496 0.9534 0.3016 98.498 422.0664)" fill="#FFFFFF" font-family="'Tahoma-Bold'" font-size="60">O</text>
<text transform="matrix(0.4673 -0.8795 0.8831 0.4692 113.9502 375.0088)" fill="#FFFFFF" font-family="'Tahoma-Bold'" font-size="60">L</text>
<text transform="matrix(0.5995 -0.7953 0.7985 0.602 129.5693 345.0488)" fill="#FFFFFF" font-family="'Tahoma-Bold'" font-size="60">Y</text>
<text transform="matrix(0.6894 -0.7188 0.7217 0.6922 152.5342 315.5288)" fill="#FFFFFF" font-family="'OpenSans-SemiBold'" font-size="65.6958"> </text>
<text transform="matrix(0.7753 -0.6252 0.6277 0.7784 162.7134 303.584)" fill="#FFFFFF" font-family="'Tahoma-Bold'" font-size="60">A</text>
<text transform="matrix(0.8833 -0.46 0.4619 0.8869 194.4463 277.2344)" fill="#FFFFFF" font-family="'Tahoma-Bold'" font-size="60">N</text>
<text transform="matrix(0.9589 -0.269 0.2701 0.9628 237.9961 254.5244)" fill="#FFFFFF" font-family="'Tahoma-Bold'" font-size="60">G</text>
<text transform="matrix(0.9912 -0.0968 0.0972 0.9953 281.9678 242.5122)" fill="#FFFFFF" font-family="'Tahoma-Bold'" font-size="60">E</text>
<text transform="matrix(0.9945 0.0541 -0.0543 0.9985 316.6895 239.0352)" fill="#FFFFFF" font-family="'Tahoma-Bold'" font-size="60">L</text>
<text transform="matrix(0.9751 0.2025 -0.2034 0.9791 350.5107 240.7402)" fill="#FFFFFF" font-family="'Tahoma-Bold'" font-size="60">S</text>
<text transform="matrix(0.9466 0.3096 -0.3108 0.9505 384.4209 248.2422)" fill="#FFFFFF" font-family="'OpenSans-SemiBold'" font-size="65.6958">,</text>
<text transform="matrix(0.9018 0.4228 -0.4245 0.9054 400.082 252.4951)" fill="#FFFFFF" font-family="'Tahoma-Bold'" font-size="60">R</text>
<text transform="matrix(0.8125 0.576 -0.5783 0.8158 436.3281 269.2202)" fill="#FFFFFF" font-family="'Tahoma-Bold'" font-size="60">A</text>
<text transform="matrix(0.7293 0.6783 -0.6811 0.7322 470.0244 293.9512)" fill="#FFFFFF" font-family="'Tahoma-Bold'" font-size="60">J </text>
<text transform="matrix(0.6384 0.7644 -0.7676 0.641 491.8691 309.8257)" fill="#FFFFFF" font-family="'Tahoma-Bold'" font-size="60">P</text>
<text transform="matrix(0.486 0.8693 -0.8729 0.488 508.8789 334.896)" fill="#FFFFFF" font-family="'Tahoma-Bold'" font-size="60">U</text>
<text transform="matrix(0.3139 0.9452 -0.949 0.3152 531.4893 375.6074)" fill="#FFFFFF" font-family="'Tahoma-Bold'" font-size="60">R</text>
<text transform="matrix(0.1405 0.986 -0.99 0.1411 544.3037 413.4375)" fill="#FFFFFF" font-family="'Tahoma-Bold'" font-size="60">A</text>
<text transform="matrix(0.0322 0.9695 -0.9994 0.0332 549.3506 455.1396)" fill="#1A1919" font-family="'CambriaMath'" font-size="36.9982"> </text>
<text transform="matrix(-0.0075 0.97 -1 -0.0077 549.6436 462.4199)" fill="#1A1919" font-family="'CambriaMath'" font-size="37">I</text>
<text transform="matrix(-0.0471 0.9689 -0.9988 -0.0485 549.5332 473.4268)" fill="#1A1919" font-family="'CambriaMath'" font-size="37"> </text>
<text transform="matrix(-0.0789 0.9668 -0.9967 -0.0813 549.1846 480.7715)" fill="#1A1919" font-family="'CambriaMath'" font-size="37"> </text>
<text transform="matrix(-0.1106 0.9637 -0.9935 -0.114 548.5977 488.084)" fill="#1A1919" font-family="'CambriaMath'" font-size="37"> </text>
<text transform="matrix(-0.1422 0.9595 -0.9892 -0.1466 547.7666 495.4072)" fill="#1A1919" font-family="'CambriaMath'" font-size="37"> </text>
<text transform="matrix(-0.1737 0.9543 -0.9838 -0.179 546.6943 502.6865)" fill="#1A1919" font-family="'CambriaMath'" font-size="36.9982"> </text>
<text transform="matrix(-0.2048 0.9481 -0.9775 -0.2111 545.3896 509.9229)" fill="#1A1919" font-family="'CambriaMath'" font-size="37.0013"> </text>
<text transform="matrix(-0.2356 0.941 -0.9701 -0.2429 543.8447 517.1084)" fill="#1A1919" font-family="'CambriaMath'" font-size="37.0017"> </text>
<text transform="matrix(-0.2662 0.9328 -0.9616 -0.2745 542.0566 524.2822)" fill="#1A1919" font-family="'CambriaMath'" font-size="37"> </text>
<text transform="matrix(-0.2963 0.9237 -0.9522 -0.3054 540.0498 531.3516)" fill="#1A1919" font-family="'CambriaMath'" font-size="37"> </text>
<text transform="matrix(-0.3249 0.914 -0.9422 -0.335 537.7949 538.3984)" fill="#1A1919" font-family="'CambriaMath'" font-size="37">.</text>
<text transform="matrix(-0.8943 0.3757 -0.3874 -0.9219 414.8721 672.8145)" fill="#FFFFFF" font-family="'CambriaMath'" font-size="37"> </text>
<text transform="matrix(-0.9544 0.1734 -0.1788 -0.9839 367.627 687.7471)" fill="#FFFFFF" font-family="'CambriaMath'" font-size="37"> </text>
<text transform="matrix(-0.9278 -0.2828 0.2916 -0.9565 260.8672 683.3662)" fill="#FFFFFF" font-family="'CambriaMath'" font-size="36.9986"> </text>
<text transform="matrix(-0.7713 -0.5883 0.6065 -0.7951 188.1934 647.7627)" fill="#FFFFFF" font-family="'CambriaMath'" font-size="37"> </text>
<text transform="matrix(-0.4401 -0.8644 0.8912 -0.4537 122.2764 571.3887)" fill="#FFFFFF" font-family="'CambriaMath'" font-size="37.0015"> </text>
<text transform="matrix(-0.4118 -0.8782 0.9054 -0.4246 118.9165 564.8076)" fill="#FFFFFF" font-family="'CambriaMath'" font-size="37"> </text>
<text transform="matrix(-0.3833 -0.891 0.9186 -0.3952 115.79 558.1602)" fill="#FFFFFF" font-family="'CambriaMath'" font-size="37"> </text>
<text transform="matrix(-0.3543 -0.903 0.9309 -0.3653 112.8701 551.3984)" fill="#FFFFFF" font-family="'CambriaMath'" font-size="37"> </text>
<text transform="matrix(-0.3249 -0.914 0.9422 -0.335 110.1719 544.542)" fill="#FFFFFF" font-family="'CambriaMath'" font-size="37"> </text>
<text transform="matrix(-0.2952 -0.924 0.9526 -0.3043 107.7007 537.6182)" fill="#FFFFFF" font-family="'CambriaMath'" font-size="37"> </text>
<text transform="matrix(-0.2651 -0.9331 0.9619 -0.2733 105.4536 530.6143)" fill="#FFFFFF" font-family="'CambriaMath'" font-size="37"> </text>
<text transform="matrix(-0.2347 -0.9412 0.9703 -0.242 103.4336 523.5381)" fill="#FFFFFF" font-family="'CambriaMath'" font-size="37"> </text>
<text transform="matrix(-0.2039 -0.9484 0.9777 -0.2102 101.6411 516.3896)" fill="#FFFFFF" font-family="'CambriaMath'" font-size="36.9979"> </text>
<text transform="matrix(-0.1729 -0.9545 0.984 -0.1782 100.084 509.1768)" fill="#FFFFFF" font-family="'CambriaMath'" font-size="37"> </text>
<text transform="matrix(-0.1417 -0.9596 0.9893 -0.1461 98.7642 501.9502)" fill="#FFFFFF" font-family="'CambriaMath'" font-size="37"> </text>
<g>
	<text transform="matrix(0.9937 0 0 1 670.9385 322.5264)" fill="#C11E43" font-family="'OpenSans-Bold'" font-size="99">HOLY ANGEL </text>
	<text transform="matrix(0.9937 0 0 1 670.9385 443.5264)" fill="#C11E43" font-family="'OpenSans-Bold'" font-size="99">RAJPURA</text>
</g>
<text transform="matrix(0.97 0 0 1 678.9385 527.0098)" fill="#1A1919" font-family="'CambriaMath'" font-size="37"> AFFILIATED TO I.C.S.E., NEW DELHI</text>
<g>
	<path fill="none" d="M542.663,361.099c67.808,117.712,32.483,266.878-87.195,338.303
		c-119.678,71.421-286.443,31.849-354.253-85.865C33.405,495.824,83.507,348.704,203.189,277.281
		C322.868,205.861,474.856,243.384,542.663,361.099z"/>
	
		<text transform="matrix(0.3567 0.9324 -0.9264 0.3701 80.8232 568.2754)" fill="#FFFFFF" font-family="'Poppins-SemiBold'" font-size="38">A</text>
	
		<text transform="matrix(0.4561 0.8862 -0.8814 0.4709 91.2744 594.7979)" fill="#FFFFFF" font-family="'Poppins-SemiBold'" font-size="38">F</text>
	
		<text transform="matrix(0.5374 0.8377 -0.8339 0.5532 101.2861 614.1172)" fill="#FFFFFF" font-family="'Poppins-SemiBold'" font-size="38">F</text>
	
		<text transform="matrix(0.5963 0.7954 -0.7925 0.6129 112.9863 631.9385)" fill="#FFFFFF" font-family="'Poppins-SemiBold'" font-size="38">I</text>
	
		<text transform="matrix(0.6466 0.7539 -0.7517 0.6637 119.6631 640.9805)" fill="#FFFFFF" font-family="'Poppins-SemiBold'" font-size="38">L</text>
	
		<text transform="matrix(0.6931 0.7101 -0.7087 0.7107 131.7949 654.8926)" fill="#FFFFFF" font-family="'Poppins-SemiBold'" font-size="38">I</text>
	
		<text transform="matrix(0.7492 0.6491 -0.6487 0.7673 139.6348 663.3281)" fill="#FFFFFF" font-family="'Poppins-SemiBold'" font-size="38">A</text>
	
		<text transform="matrix(0.8118 0.5668 -0.5676 0.8304 161.0869 681.5957)" fill="#FFFFFF" font-family="'Poppins-SemiBold'" font-size="38">T</text>
	
		<text transform="matrix(0.857 0.4942 -0.4961 0.8759 179.5059 694.3428)" fill="#FFFFFF" font-family="'Poppins-SemiBold'" font-size="38">E</text>
	
		<text transform="matrix(0.9001 0.4092 -0.4122 0.9191 197.8916 705.0615)" fill="#FFFFFF" font-family="'Poppins-SemiBold'" font-size="38">D</text>
	
		<text transform="matrix(0.9265 0.3444 -0.3482 0.9455 223.9238 716.4795)" fill="#FFFFFF" font-family="'Poppins-SemiBold'" font-size="38"> </text>
	
		<text transform="matrix(0.9445 0.2908 -0.2952 0.9634 232.4053 719.7979)" fill="#FFFFFF" font-family="'Poppins-SemiBold'" font-size="38">T</text>
	
		<text transform="matrix(0.9685 0.1971 -0.2026 0.9871 253.8906 726.5527)" fill="#FFFFFF" font-family="'Poppins-SemiBold'" font-size="38">O</text>
	
		<text transform="matrix(0.9804 0.1262 -0.1324 0.9987 284.1768 732.2754)" fill="#FFFFFF" font-family="'Poppins-SemiBold'" font-size="38"> </text>
	
		<text transform="matrix(0.9844 0.0916 -0.0982 1.0025 292.8467 733.3975)" fill="#FFFFFF" font-family="'Poppins-SemiBold'" font-size="38">I</text>
	
		<text transform="matrix(0.9872 0.0574 -0.0644 1.0051 303.4541 734.3574)" fill="#FFFFFF" font-family="'Poppins-SemiBold'" font-size="38">.</text>
	
		<text transform="matrix(0.9892 -0.0124 0.0048 1.0066 312.4814 735.209)" fill="#FFFFFF" font-family="'Poppins-SemiBold'" font-size="38">C</text>
	
		<text transform="matrix(0.9864 -0.0832 0.0749 1.0032 342.1416 734.4277)" fill="#FFFFFF" font-family="'Poppins-SemiBold'" font-size="38">.</text>
	
		<text transform="matrix(0.9803 -0.1422 0.1335 0.9965 351.04 733.8633)" fill="#FFFFFF" font-family="'Poppins-SemiBold'" font-size="38">S</text>
	
		<text transform="matrix(0.9705 -0.2018 0.1925 0.9861 373.8984 730.2988)" fill="#FFFFFF" font-family="'Poppins-SemiBold'" font-size="38">.</text>
	
		<text transform="matrix(0.9581 -0.2569 0.2472 0.9731 382.5986 728.6367)" fill="#FFFFFF" font-family="'Poppins-SemiBold'" font-size="38">E</text>
	
		<text transform="matrix(0.9424 -0.3122 0.3022 0.9567 402.5684 723.0781)" fill="#FFFFFF" font-family="'Poppins-SemiBold'" font-size="38">.</text>
	
		<text transform="matrix(0.9317 -0.3441 0.3338 0.9456 410.6299 720.3994)" fill="#FFFFFF" font-family="'Poppins-SemiBold'" font-size="38">,</text>
	
		<text transform="matrix(0.9196 -0.3765 0.366 0.933 418.7393 717.3955)" fill="#FFFFFF" font-family="'Poppins-SemiBold'" font-size="38"> </text>
	
		<text transform="matrix(0.889 -0.4465 0.4356 0.9014 427.6191 714.1104)" fill="#FFFFFF" font-family="'Poppins-SemiBold'" font-size="38">N</text>
	
		<text transform="matrix(0.8409 -0.5345 0.5232 0.8517 453.3984 700.8418)" fill="#FFFFFF" font-family="'Poppins-SemiBold'" font-size="38">E</text>
	
		<text transform="matrix(0.7711 -0.6339 0.6221 0.78 472.1416 689.4746)" fill="#FFFFFF" font-family="'Poppins-SemiBold'" font-size="38">W</text>
	
		<text transform="matrix(0.7045 -0.7093 0.6973 0.7116 502.8076 663.1719)" fill="#FFFFFF" font-family="'Poppins-SemiBold'" font-size="38"> </text>
	
		<text transform="matrix(0.6476 -0.7629 0.7509 0.6533 509.8105 656.5859)" fill="#FFFFFF" font-family="'Poppins-SemiBold'" font-size="38">D</text>
	
		<text transform="matrix(0.5651 -0.8272 0.8152 0.5689 528.5928 634.0117)" fill="#FFFFFF" font-family="'Poppins-SemiBold'" font-size="38">E</text>
	
		<text transform="matrix(0.4951 -0.8718 0.8599 0.4973 540.5635 616.3027)" fill="#FFFFFF" font-family="'Poppins-SemiBold'" font-size="38">L</text>
	
		<text transform="matrix(0.4071 -0.9169 0.9052 0.4073 550.2051 599.6348)" fill="#FFFFFF" font-family="'Poppins-SemiBold'" font-size="38">H</text>
	
		<text transform="matrix(0.3305 -0.9476 0.9362 0.3291 561.4141 573.3955)" fill="#FFFFFF" font-family="'Poppins-SemiBold'" font-size="38">I</text>
</g>
<circle fill="#F1A948" cx="87.088" cy="541.762" r="7.37"/>
<circle fill="#F1A948" cx="557.088" cy="537.762" r="7.37"/>
<circle fill="none" stroke="#BF134C" stroke-width="12" stroke-miterlimit="10" cx="323.689" cy="472.277" r="214.8"/>
</svg>
